<?xml version="1.0" encoding="utf-8"?>
<!-- Generator: Adobe Illustrator 19.0.0, SVG Export Plug-In . SVG Version: 6.00 Build 0)  -->
<svg version="1.1" id="Layer_1" xmlns="http://www.w3.org/2000/svg" xmlns:xlink="http://www.w3.org/1999/xlink" x="0px" y="0px"
	 viewBox="0 0 289.8 61.2" style="enable-background:new 0 0 289.8 61.2;" xml:space="preserve">
<style type="text/css">
	.st0{fill:#26275F;}
	.st1{fill:#FFFFFF;}
</style>
<rect id="XMLID_80_" class="st0" width="289.8" height="38.5"/>
<g id="XMLID_130_">
	<path id="XMLID_131_" class="st1" d="M17,13.2l-3,0.1c-1.2,0-1.6,0.1-1.9,0.6c-0.2,0.3-0.3,0.5-0.3,0.7c0,0.2-0.1,0.2-0.2,0.2
		c-0.1,0-0.2-0.1-0.2-0.3c0-0.3,0.4-2.1,0.4-2.3c0.1-0.3,0.1-0.4,0.2-0.4c0.2,0,0.4,0.2,0.9,0.2c0.6,0.1,1.3,0.1,2,0.1h7.9
		c0.6,0,1.1-0.1,1.4-0.1c0.3-0.1,0.5-0.1,0.5-0.1c0.1,0,0.2,0.1,0.2,0.4c0,0.4-0.1,1.8-0.1,2.3c0,0.2-0.1,0.3-0.2,0.3
		c-0.2,0-0.2-0.1-0.2-0.4l0-0.2c0-0.5-0.6-1.1-2.4-1.1l-2.5-0.1v8.2c0,1.8,0,3.4,0.1,4.3c0.1,0.6,0.2,1,0.8,1.1c0.3,0,0.7,0.1,1,0.1
		c0.2,0,0.3,0.1,0.3,0.2c0,0.1-0.2,0.2-0.4,0.2c-1.3,0-2.6-0.1-3.1-0.1c-0.5,0-1.7,0.1-2.5,0.1c-0.3,0-0.4-0.1-0.4-0.2
		c0-0.1,0.1-0.2,0.3-0.2c0.3,0,0.5,0,0.7-0.1c0.4-0.1,0.5-0.5,0.6-1.1c0.1-0.8,0.1-2.4,0.1-4.3V13.2z"/>
	<path id="XMLID_133_" class="st1" d="M38.8,18.5c0.1,0,0.1,0,0.1-0.1v-0.4c0-3,0-3.6,0-4.2c0-0.7-0.2-1-0.9-1.1
		c-0.2,0-0.5-0.1-0.8-0.1c-0.2,0-0.3,0-0.3-0.2s0.1-0.2,0.4-0.2c1.1,0,2.3,0.1,2.9,0.1c0.5,0,1.7-0.1,2.5-0.1c0.3,0,0.4,0,0.4,0.2
		s-0.1,0.2-0.4,0.2c-0.2,0-0.3,0-0.6,0.1c-0.5,0.1-0.7,0.4-0.7,1.1c0,0.6,0,1.2,0,4.2v3.5c0,1.8,0,3.4,0.1,4.3
		c0.1,0.6,0.2,1,0.8,1.1c0.3,0,0.7,0.1,1,0.1c0.2,0,0.3,0.1,0.3,0.2c0,0.1-0.2,0.2-0.4,0.2c-1.3,0-2.6-0.1-3.1-0.1
		c-0.5,0-1.7,0.1-2.5,0.1c-0.3,0-0.4-0.1-0.4-0.2c0-0.1,0.1-0.2,0.3-0.2c0.3,0,0.5,0,0.7-0.1c0.4-0.1,0.5-0.5,0.6-1.1
		c0.1-0.8,0.1-2.4,0.1-4.3v-1.8c0-0.1-0.1-0.1-0.1-0.1h-7.6c-0.1,0-0.1,0-0.1,0.1v1.8c0,1.8,0,3.4,0.1,4.3c0.1,0.6,0.2,1,0.8,1.1
		c0.3,0,0.7,0.1,1,0.1c0.2,0,0.3,0.1,0.3,0.2c0,0.1-0.2,0.2-0.4,0.2c-1.3,0-2.6-0.1-3.1-0.1c-0.5,0-1.7,0.1-2.5,0.1
		c-0.3,0-0.4-0.1-0.4-0.2c0-0.1,0.1-0.2,0.3-0.2c0.3,0,0.5,0,0.7-0.1c0.4-0.1,0.5-0.5,0.6-1.1c0.1-0.8,0.1-2.4,0.1-4.3v-3.5
		c0-3,0-3.6,0-4.2c0-0.7-0.2-1-0.9-1.1c-0.2,0-0.5-0.1-0.8-0.1c-0.2,0-0.3,0-0.3-0.2s0.1-0.2,0.4-0.2c1.1,0,2.3,0.1,2.9,0.1
		c0.5,0,1.7-0.1,2.5-0.1c0.3,0,0.4,0,0.4,0.2s-0.1,0.2-0.4,0.2c-0.2,0-0.3,0-0.6,0.1c-0.5,0.1-0.7,0.4-0.7,1.1c0,0.6,0,1.2,0,4.2
		v0.4c0,0.1,0.1,0.1,0.1,0.1H38.8z"/>
	<path id="XMLID_135_" class="st1" d="M48,17.9c0-3,0-3.6,0-4.2c0-0.7-0.2-1-0.9-1.1c-0.2,0-0.5-0.1-0.8-0.1c-0.2,0-0.3,0-0.3-0.2
		s0.1-0.2,0.4-0.2c0.5,0,1.1,0,1.6,0c0.5,0,1,0,1.3,0c0.6,0,4.6,0,5,0c0.4,0,0.7-0.1,0.9-0.1c0.1,0,0.2-0.1,0.3-0.1s0.1,0.1,0.1,0.2
		c0,0.1-0.1,0.4-0.2,1.3c0,0.2-0.1,1.1-0.1,1.3c0,0.1-0.1,0.2-0.2,0.2s-0.2-0.1-0.2-0.3c0-0.1,0-0.5-0.1-0.7
		c-0.1-0.4-0.3-0.6-1.3-0.7c-0.3,0-2.4-0.1-2.8-0.1c-0.1,0-0.1,0.1-0.1,0.2v5.1c0,0.1,0,0.2,0.1,0.2c0.4,0,2.7,0,3.2,0
		c0.5,0,0.8-0.1,1-0.3c0.1-0.2,0.2-0.3,0.3-0.3c0.1,0,0.1,0,0.1,0.2s-0.1,0.4-0.2,1.5c0,0.4-0.1,1.2-0.1,1.3c0,0.2,0,0.4-0.2,0.4
		c-0.1,0-0.2-0.1-0.2-0.2c0-0.2,0-0.5-0.1-0.7c-0.1-0.4-0.4-0.7-1.1-0.8c-0.4,0-2.4-0.1-2.8-0.1c-0.1,0-0.1,0.1-0.1,0.2v1.6
		c0,0.7,0,2.5,0,3.1c0,1.4,0.4,1.7,2.4,1.7c0.5,0,1.4,0,1.9-0.2s0.8-0.7,0.9-1.5c0-0.2,0.1-0.3,0.2-0.3c0.2,0,0.2,0.2,0.2,0.4
		c0,0.5-0.2,1.8-0.3,2.2c-0.1,0.5-0.3,0.5-1.1,0.5c-1.5,0-2.6,0-3.5-0.1c-0.9,0-1.5-0.1-2.1-0.1c-0.2,0-0.7,0-1.1,0
		c-0.5,0-1,0-1.4,0c-0.3,0-0.4-0.1-0.4-0.2c0-0.1,0.1-0.2,0.3-0.2c0.3,0,0.5,0,0.7-0.1c0.4-0.1,0.5-0.5,0.6-1.1
		c0.1-0.8,0.1-2.4,0.1-4.3V17.9z"/>
	<path id="XMLID_137_" class="st1" d="M66.6,17.9c0-3,0-3.6,0-4.2c0-0.7-0.2-1-0.7-1.1c-0.2-0.1-0.5-0.1-0.7-0.1
		c-0.2,0-0.3,0-0.3-0.2c0-0.1,0.2-0.2,0.5-0.2c0.8,0,2,0.1,2.6,0.1c0.5,0,1.7-0.1,2.4-0.1c0.3,0,0.4,0,0.4,0.2
		c0,0.2-0.1,0.2-0.3,0.2s-0.4,0-0.6,0.1c-0.5,0.1-0.7,0.4-0.7,1.1c0,0.6,0,1.2,0,4.2v3.5c0,1.9,0,3.5,0.1,4.4c0.1,0.5,0.2,0.9,0.8,1
		c0.3,0,0.7,0.1,1,0.1c0.2,0,0.3,0.1,0.3,0.2c0,0.1-0.2,0.2-0.4,0.2c-1.3,0-2.6-0.1-3.1-0.1c-0.5,0-1.7,0.1-2.5,0.1
		c-0.3,0-0.4-0.1-0.4-0.2c0-0.1,0.1-0.2,0.3-0.2c0.3,0,0.5,0,0.7-0.1c0.4-0.1,0.5-0.4,0.6-1c0.1-0.8,0.1-2.4,0.1-4.4V17.9z"/>
	<path id="XMLID_139_" class="st1" d="M76.4,12.2c0.1-0.3,0.2-0.5,0.3-0.5s0.3,0.1,0.5,0.6l5.5,11.3l5.4-11.4
		c0.2-0.3,0.3-0.5,0.4-0.5c0.2,0,0.3,0.2,0.4,0.6l1.8,12.4c0.2,1.3,0.4,1.8,1,2c0.6,0.2,1,0.2,1.2,0.2c0.2,0,0.3,0,0.3,0.1
		c0,0.2-0.2,0.2-0.5,0.2c-0.5,0-3.3-0.1-4.1-0.1c-0.5,0-0.6-0.1-0.6-0.2c0-0.1,0.1-0.2,0.2-0.2c0.1,0,0.2-0.3,0.1-0.9L87.3,17h-0.1
		l-4.4,9.1c-0.5,0.9-0.6,1.1-0.7,1.1s-0.4-0.4-0.7-1c-0.5-0.9-2.1-4-2.3-4.5c-0.2-0.4-1.4-2.9-2.1-4.4h-0.1l-1,8
		c0,0.4-0.1,0.6-0.1,0.9c0,0.4,0.3,0.6,0.6,0.6c0.4,0.1,0.6,0.1,0.8,0.1c0.2,0,0.3,0,0.3,0.1c0,0.2-0.2,0.2-0.5,0.2
		c-0.8,0-1.7-0.1-2.1-0.1c-0.4,0-1.3,0.1-2,0.1c-0.2,0-0.4,0-0.4-0.2c0-0.1,0.1-0.1,0.3-0.1c0.2,0,0.3,0,0.6-0.1
		c0.6-0.1,0.7-0.9,0.8-1.6L76.4,12.2z"/>
	<path id="XMLID_141_" class="st1" d="M96.5,17.9c0-3,0-3.6,0-4.2c0-0.7-0.2-1-0.9-1.1c-0.2,0-0.5-0.1-0.8-0.1c-0.2,0-0.3,0-0.3-0.2
		s0.1-0.2,0.4-0.2c1.1,0,2.3,0.1,2.9,0.1c0.8,0,2-0.1,2.9-0.1c2.5,0,3.4,0.8,3.7,1.1c0.4,0.4,1,1.3,1,2.4c0,2.8-2.1,4.8-4.9,4.8
		c-0.1,0-0.3,0-0.4,0c-0.1,0-0.2,0-0.2-0.2c0-0.2,0.1-0.2,0.6-0.2c1.1,0,2.7-1.3,2.7-3.3c0-0.7-0.1-2-1.2-3c-0.7-0.7-1.5-0.8-2-0.8
		c-0.3,0-0.6,0-0.8,0.1c-0.1,0-0.2,0.2-0.2,0.4v8c0,1.8,0,3.4,0.1,4.3c0.1,0.6,0.2,1,0.8,1.1c0.3,0,0.7,0.1,1,0.1
		c0.2,0,0.3,0.1,0.3,0.2c0,0.1-0.2,0.2-0.4,0.2c-1.3,0-2.6-0.1-3.1-0.1c-0.5,0-1.7,0.1-2.5,0.1c-0.3,0-0.4-0.1-0.4-0.2
		c0-0.1,0.1-0.2,0.3-0.2c0.3,0,0.5,0,0.7-0.1c0.4-0.1,0.5-0.5,0.6-1.1c0.1-0.8,0.1-2.4,0.1-4.3V17.9z"/>
	<path id="XMLID_143_" class="st1" d="M109.4,22c-0.1,0-0.1,0-0.2,0.2l-1.1,2.9c-0.2,0.5-0.3,1-0.3,1.2c0,0.4,0.2,0.6,0.8,0.6h0.3
		c0.2,0,0.3,0,0.3,0.2c0,0.2-0.1,0.2-0.3,0.2c-0.6,0-1.5-0.1-2.1-0.1c-0.2,0-1.3,0.1-2.4,0.1c-0.3,0-0.4,0-0.4-0.2
		c0-0.1,0.1-0.2,0.2-0.2c0.2,0,0.5,0,0.6,0c0.9-0.1,1.3-0.8,1.7-1.8l5-12.6c0.2-0.6,0.4-0.8,0.6-0.8c0.2,0,0.3,0.2,0.5,0.6
		c0.5,1.1,3.7,9.3,5,12.3c0.8,1.8,1.3,2.1,1.8,2.2c0.3,0.1,0.6,0.1,0.8,0.1c0.2,0,0.3,0,0.3,0.2c0,0.2-0.2,0.2-0.9,0.2
		c-0.7,0-2.2,0-3.8,0c-0.4,0-0.6,0-0.6-0.2c0-0.1,0.1-0.2,0.3-0.2c0.1,0,0.3-0.2,0.2-0.5l-1.6-4.2c0-0.1-0.1-0.1-0.2-0.1H109.4z
		 M113.5,21c0.1,0,0.1-0.1,0.1-0.1l-1.8-4.9c0-0.1,0-0.2-0.1-0.2s-0.1,0.1-0.1,0.2l-1.8,4.9c0,0.1,0,0.1,0.1,0.1H113.5z"/>
	<path id="XMLID_146_" class="st1" d="M122.9,25.3c-2-1.7-2.5-4-2.5-5.9c0-1.4,0.4-3.7,2.3-5.5c1.4-1.3,3.3-2.1,6.3-2.1
		c1.2,0,2,0.1,2.9,0.2c0.8,0.1,1.4,0.3,2,0.3c0.2,0,0.3,0.1,0.3,0.2c0,0.2-0.1,0.4-0.1,1.1c0,0.7,0,1.8-0.1,2.2
		c0,0.3-0.1,0.5-0.2,0.5c-0.2,0-0.2-0.2-0.2-0.4c0-0.6-0.3-1.3-0.8-1.8c-0.7-0.7-2.2-1.2-4.1-1.2c-1.7,0-2.9,0.4-3.8,1.2
		c-1.5,1.3-1.8,3.2-1.8,5.2c0,4.8,3.6,7.1,6.3,7.1c1.8,0,2.9-0.2,3.7-1.1c0.3-0.4,0.6-1,0.7-1.3c0.1-0.3,0.1-0.4,0.3-0.4
		c0.1,0,0.2,0.1,0.2,0.3c0,0.2-0.2,2-0.4,2.7c-0.1,0.3-0.2,0.4-0.5,0.6c-0.8,0.3-2.3,0.5-3.6,0.5C127,27.5,124.7,26.9,122.9,25.3z"
		/>
	<path id="XMLID_148_" class="st1" d="M141.2,13.2l-3,0.1c-1.2,0-1.6,0.1-1.9,0.6c-0.2,0.3-0.3,0.5-0.3,0.7c0,0.2-0.1,0.2-0.2,0.2
		c-0.1,0-0.2-0.1-0.2-0.3c0-0.3,0.4-2.1,0.4-2.3c0.1-0.3,0.1-0.4,0.2-0.4c0.2,0,0.4,0.2,0.9,0.2c0.6,0.1,1.3,0.1,2,0.1h7.9
		c0.6,0,1.1-0.1,1.4-0.1c0.3-0.1,0.5-0.1,0.5-0.1c0.1,0,0.2,0.1,0.2,0.4c0,0.4-0.1,1.8-0.1,2.3c0,0.2-0.1,0.3-0.2,0.3
		c-0.2,0-0.2-0.1-0.2-0.4l0-0.2c0-0.5-0.6-1.1-2.4-1.1l-2.5-0.1v8.2c0,1.8,0,3.4,0.1,4.3c0.1,0.6,0.2,1,0.8,1.1c0.3,0,0.7,0.1,1,0.1
		c0.2,0,0.3,0.1,0.3,0.2c0,0.1-0.2,0.2-0.4,0.2c-1.3,0-2.6-0.1-3.1-0.1c-0.5,0-1.7,0.1-2.5,0.1c-0.3,0-0.4-0.1-0.4-0.2
		c0-0.1,0.1-0.2,0.3-0.2c0.3,0,0.5,0,0.7-0.1c0.4-0.1,0.5-0.5,0.6-1.1c0.1-0.8,0.1-2.4,0.1-4.3V13.2z"/>
	<path id="XMLID_150_" class="st1" d="M158.7,17.9c0-3,0-3.6,0-4.2c0-0.7-0.2-1-0.7-1.1c-0.2-0.1-0.5-0.1-0.7-0.1
		c-0.2,0-0.3,0-0.3-0.2c0-0.1,0.2-0.2,0.5-0.2c0.8,0,2,0.1,2.6,0.1c0.5,0,1.7-0.1,2.4-0.1c0.3,0,0.4,0,0.4,0.2
		c0,0.2-0.1,0.2-0.3,0.2s-0.4,0-0.6,0.1c-0.5,0.1-0.7,0.4-0.7,1.1c0,0.6,0,1.2,0,4.2v3.5c0,1.9,0,3.5,0.1,4.4c0.1,0.5,0.2,0.9,0.8,1
		c0.3,0,0.7,0.1,1,0.1c0.2,0,0.3,0.1,0.3,0.2c0,0.1-0.2,0.2-0.4,0.2c-1.3,0-2.6-0.1-3.1-0.1c-0.5,0-1.7,0.1-2.5,0.1
		c-0.3,0-0.4-0.1-0.4-0.2c0-0.1,0.1-0.2,0.3-0.2c0.3,0,0.5,0,0.7-0.1c0.4-0.1,0.5-0.4,0.6-1c0.1-0.8,0.1-2.4,0.1-4.4V17.9z"/>
	<path id="XMLID_152_" class="st1" d="M168.9,24.5c0,1.6,0.3,2.1,0.7,2.2c0.3,0.1,0.7,0.1,1,0.1c0.2,0,0.3,0,0.3,0.2
		c0,0.2-0.2,0.2-0.5,0.2c-1.3,0-2.1-0.1-2.5-0.1c-0.2,0-1.1,0.1-2.2,0.1c-0.3,0-0.4,0-0.4-0.2c0-0.1,0.1-0.2,0.3-0.2
		c0.3,0,0.6,0,0.9-0.1c0.5-0.2,0.6-0.7,0.6-2.5l0.2-11.8c0-0.4,0.1-0.7,0.3-0.7c0.2,0,0.4,0.3,0.7,0.6c0.2,0.3,3.3,3.5,6.2,6.4
		c1.4,1.4,4.1,4.2,4.4,4.6h0.1l-0.2-9c0-1.2-0.2-1.6-0.7-1.8c-0.3-0.1-0.8-0.1-1.1-0.1c-0.2,0-0.3-0.1-0.3-0.2
		c0-0.2,0.2-0.2,0.5-0.2c1,0,2,0.1,2.4,0.1c0.2,0,1-0.1,2-0.1c0.3,0,0.5,0,0.5,0.2c0,0.1-0.1,0.2-0.4,0.2c-0.2,0-0.4,0-0.6,0.1
		c-0.6,0.2-0.7,0.6-0.7,1.7l-0.2,12.6c0,0.4-0.1,0.6-0.3,0.6c-0.2,0-0.5-0.2-0.7-0.4c-1.3-1.2-3.8-3.8-5.9-5.9
		c-2.2-2.2-4.4-4.7-4.8-5h-0.1L168.9,24.5z"/>
	<path id="XMLID_154_" class="st1" d="M186.7,17.9c0-3,0-3.6,0-4.2c0-0.7-0.2-1-0.7-1.1c-0.2-0.1-0.5-0.1-0.7-0.1
		c-0.2,0-0.3,0-0.3-0.2c0-0.1,0.2-0.2,0.5-0.2c0.8,0,2,0.1,2.6,0.1c0.5,0,1.7-0.1,2.4-0.1c0.3,0,0.4,0,0.4,0.2
		c0,0.2-0.1,0.2-0.3,0.2s-0.4,0-0.6,0.1c-0.5,0.1-0.7,0.4-0.7,1.1c0,0.6,0,1.2,0,4.2v3.5c0,1.9,0,3.5,0.1,4.4c0.1,0.5,0.2,0.9,0.8,1
		c0.3,0,0.7,0.1,1,0.1c0.2,0,0.3,0.1,0.3,0.2c0,0.1-0.2,0.2-0.4,0.2c-1.3,0-2.6-0.1-3.1-0.1c-0.5,0-1.7,0.1-2.5,0.1
		c-0.3,0-0.4-0.1-0.4-0.2c0-0.1,0.1-0.2,0.3-0.2c0.3,0,0.5,0,0.7-0.1c0.4-0.1,0.5-0.4,0.6-1c0.1-0.8,0.1-2.4,0.1-4.4V17.9z"/>
	<path id="XMLID_156_" class="st1" d="M198.4,13.2l-3,0.1c-1.2,0-1.6,0.1-1.9,0.6c-0.2,0.3-0.3,0.5-0.3,0.7c0,0.2-0.1,0.2-0.2,0.2
		c-0.1,0-0.2-0.1-0.2-0.3c0-0.3,0.4-2.1,0.4-2.3c0.1-0.3,0.1-0.4,0.2-0.4c0.2,0,0.4,0.2,0.9,0.2c0.6,0.1,1.3,0.1,2,0.1h7.9
		c0.6,0,1.1-0.1,1.4-0.1c0.3-0.1,0.5-0.1,0.5-0.1c0.1,0,0.2,0.1,0.2,0.4c0,0.4-0.1,1.8-0.1,2.3c0,0.2-0.1,0.3-0.2,0.3
		c-0.2,0-0.2-0.1-0.2-0.4l0-0.2c0-0.5-0.6-1.1-2.4-1.1l-2.5-0.1v8.2c0,1.8,0,3.4,0.1,4.3c0.1,0.6,0.2,1,0.8,1.1c0.3,0,0.7,0.1,1,0.1
		c0.2,0,0.3,0.1,0.3,0.2c0,0.1-0.2,0.2-0.4,0.2c-1.3,0-2.6-0.1-3.1-0.1c-0.5,0-1.7,0.1-2.5,0.1c-0.3,0-0.4-0.1-0.4-0.2
		c0-0.1,0.1-0.2,0.3-0.2c0.3,0,0.5,0,0.7-0.1c0.4-0.1,0.5-0.5,0.6-1.1c0.1-0.8,0.1-2.4,0.1-4.3V13.2z"/>
	<path id="XMLID_158_" class="st1" d="M209.9,17.9c0-3,0-3.6,0-4.2c0-0.7-0.2-1-0.7-1.1c-0.2-0.1-0.5-0.1-0.7-0.1
		c-0.2,0-0.3,0-0.3-0.2c0-0.1,0.2-0.2,0.5-0.2c0.8,0,2,0.1,2.6,0.1c0.5,0,1.7-0.1,2.4-0.1c0.3,0,0.4,0,0.4,0.2
		c0,0.2-0.1,0.2-0.3,0.2s-0.4,0-0.6,0.1c-0.5,0.1-0.7,0.4-0.7,1.1c0,0.6,0,1.2,0,4.2v3.5c0,1.9,0,3.5,0.1,4.4c0.1,0.5,0.2,0.9,0.8,1
		c0.3,0,0.7,0.1,1,0.1c0.2,0,0.3,0.1,0.3,0.2c0,0.1-0.2,0.2-0.4,0.2c-1.3,0-2.6-0.1-3.1-0.1c-0.5,0-1.7,0.1-2.5,0.1
		c-0.3,0-0.4-0.1-0.4-0.2c0-0.1,0.1-0.2,0.3-0.2c0.3,0,0.5,0,0.7-0.1c0.4-0.1,0.5-0.4,0.6-1c0.1-0.8,0.1-2.4,0.1-4.4V17.9z"/>
	<path id="XMLID_160_" class="st1" d="M219.8,22c-0.1,0-0.1,0-0.2,0.2l-1.1,2.9c-0.2,0.5-0.3,1-0.3,1.2c0,0.4,0.2,0.6,0.8,0.6h0.3
		c0.2,0,0.3,0,0.3,0.2c0,0.2-0.1,0.2-0.3,0.2c-0.6,0-1.5-0.1-2.1-0.1c-0.2,0-1.3,0.1-2.4,0.1c-0.3,0-0.4,0-0.4-0.2
		c0-0.1,0.1-0.2,0.2-0.2c0.2,0,0.5,0,0.6,0c0.9-0.1,1.3-0.8,1.7-1.8l5-12.6c0.2-0.6,0.4-0.8,0.6-0.8c0.2,0,0.3,0.2,0.5,0.6
		c0.5,1.1,3.7,9.3,5,12.3c0.8,1.8,1.3,2.1,1.8,2.2c0.3,0.1,0.6,0.1,0.8,0.1c0.2,0,0.3,0,0.3,0.2c0,0.2-0.2,0.2-0.9,0.2
		c-0.7,0-2.2,0-3.8,0c-0.4,0-0.6,0-0.6-0.2c0-0.1,0.1-0.2,0.3-0.2c0.1,0,0.3-0.2,0.2-0.5l-1.6-4.2c0-0.1-0.1-0.1-0.2-0.1H219.8z
		 M223.8,21c0.1,0,0.1-0.1,0.1-0.1l-1.8-4.9c0-0.1,0-0.2-0.1-0.2c-0.1,0-0.1,0.1-0.1,0.2l-1.8,4.9c0,0.1,0,0.1,0.1,0.1H223.8z"/>
	<path id="XMLID_163_" class="st1" d="M234.3,13.2l-3,0.1c-1.2,0-1.6,0.1-1.9,0.6c-0.2,0.3-0.3,0.5-0.3,0.7c0,0.2-0.1,0.2-0.2,0.2
		c-0.1,0-0.2-0.1-0.2-0.3c0-0.3,0.4-2.1,0.4-2.3c0.1-0.3,0.1-0.4,0.2-0.4c0.2,0,0.4,0.2,0.9,0.2c0.6,0.1,1.3,0.1,2,0.1h7.9
		c0.6,0,1.1-0.1,1.4-0.1c0.3-0.1,0.5-0.1,0.5-0.1c0.1,0,0.2,0.1,0.2,0.4c0,0.4-0.1,1.8-0.1,2.3c0,0.2-0.1,0.3-0.2,0.3
		c-0.2,0-0.2-0.1-0.2-0.4l0-0.2c0-0.5-0.6-1.1-2.4-1.1l-2.5-0.1v8.2c0,1.8,0,3.4,0.1,4.3c0.1,0.6,0.2,1,0.8,1.1c0.3,0,0.7,0.1,1,0.1
		c0.2,0,0.3,0.1,0.3,0.2c0,0.1-0.2,0.2-0.4,0.2c-1.3,0-2.6-0.1-3.1-0.1c-0.5,0-1.7,0.1-2.5,0.1c-0.3,0-0.4-0.1-0.4-0.2
		c0-0.1,0.1-0.2,0.3-0.2c0.3,0,0.5,0,0.7-0.1c0.4-0.1,0.5-0.5,0.6-1.1c0.1-0.8,0.1-2.4,0.1-4.3V13.2z"/>
	<path id="XMLID_165_" class="st1" d="M245.9,17.9c0-3,0-3.6,0-4.2c0-0.7-0.2-1-0.7-1.1c-0.2-0.1-0.5-0.1-0.7-0.1
		c-0.2,0-0.3,0-0.3-0.2c0-0.1,0.2-0.2,0.5-0.2c0.8,0,2,0.1,2.6,0.1c0.5,0,1.7-0.1,2.4-0.1c0.3,0,0.4,0,0.4,0.2
		c0,0.2-0.1,0.2-0.3,0.2s-0.4,0-0.6,0.1c-0.5,0.1-0.7,0.4-0.7,1.1c0,0.6,0,1.2,0,4.2v3.5c0,1.9,0,3.5,0.1,4.4c0.1,0.5,0.2,0.9,0.8,1
		c0.3,0,0.7,0.1,1,0.1c0.2,0,0.3,0.1,0.3,0.2c0,0.1-0.2,0.2-0.4,0.2c-1.3,0-2.6-0.1-3.1-0.1c-0.5,0-1.7,0.1-2.5,0.1
		c-0.3,0-0.4-0.1-0.4-0.2c0-0.1,0.1-0.2,0.3-0.2c0.3,0,0.5,0,0.7-0.1c0.4-0.1,0.5-0.4,0.6-1c0.1-0.8,0.1-2.4,0.1-4.4V17.9z"/>
	<path id="XMLID_167_" class="st1" d="M253.1,14.1c-0.5-1.1-0.8-1.3-1.5-1.5c-0.3-0.1-0.6-0.1-0.8-0.1c-0.2,0-0.2-0.1-0.2-0.2
		c0-0.2,0.2-0.2,0.5-0.2c1.1,0,2.2,0.1,2.9,0.1c0.5,0,1.5-0.1,2.5-0.1c0.2,0,0.5,0,0.5,0.2s-0.1,0.2-0.3,0.2c-0.3,0-0.6,0-0.8,0.1
		c-0.1,0.1-0.2,0.2-0.2,0.4c0,0.3,0.2,0.8,0.5,1.5l3.4,9.1h0.1c0.9-2.2,3.5-8.6,3.9-10c0.1-0.3,0.2-0.6,0.2-0.7
		c0-0.2-0.1-0.3-0.3-0.4c-0.2-0.1-0.5-0.1-0.8-0.1c-0.2,0-0.3,0-0.3-0.2c0-0.2,0.2-0.2,0.6-0.2c1,0,1.8,0.1,2.1,0.1
		c0.3,0,1.3-0.1,1.9-0.1c0.3,0,0.4,0,0.4,0.2s-0.1,0.2-0.3,0.2c-0.2,0-0.6,0-1,0.2c-0.3,0.2-0.6,0.5-1.1,1.8c-0.8,1.9-1.3,3-2.4,5.4
		c-1.3,2.9-2.2,5.1-2.7,6.1c-0.5,1.2-0.6,1.5-0.9,1.5c-0.3,0-0.4-0.3-0.8-1.2L253.1,14.1z"/>
	<path id="XMLID_169_" class="st1" d="M269.4,17.9c0-3,0-3.6,0-4.2c0-0.7-0.2-1-0.9-1.1c-0.2,0-0.5-0.1-0.8-0.1
		c-0.2,0-0.3,0-0.3-0.2s0.1-0.2,0.4-0.2c0.5,0,1.1,0,1.6,0c0.5,0,1,0,1.3,0c0.6,0,4.6,0,5,0c0.4,0,0.7-0.1,0.9-0.1
		c0.1,0,0.2-0.1,0.3-0.1c0.1,0,0.1,0.1,0.1,0.2c0,0.1-0.1,0.4-0.2,1.3c0,0.2-0.1,1.1-0.1,1.3c0,0.1-0.1,0.2-0.2,0.2
		c-0.1,0-0.2-0.1-0.2-0.3c0-0.1,0-0.5-0.1-0.7c-0.1-0.4-0.3-0.6-1.3-0.7c-0.3,0-2.4-0.1-2.8-0.1c-0.1,0-0.1,0.1-0.1,0.2v5.1
		c0,0.1,0,0.2,0.1,0.2c0.4,0,2.7,0,3.2,0c0.5,0,0.8-0.1,1-0.3c0.1-0.2,0.2-0.3,0.3-0.3c0.1,0,0.1,0,0.1,0.2s-0.1,0.4-0.2,1.5
		c0,0.4-0.1,1.2-0.1,1.3c0,0.2,0,0.4-0.2,0.4c-0.1,0-0.2-0.1-0.2-0.2c0-0.2,0-0.5-0.1-0.7c-0.1-0.4-0.4-0.7-1.1-0.8
		c-0.4,0-2.4-0.1-2.8-0.1c-0.1,0-0.1,0.1-0.1,0.2v1.6c0,0.7,0,2.5,0,3.1c0,1.4,0.4,1.7,2.4,1.7c0.5,0,1.4,0,1.9-0.2
		c0.5-0.2,0.8-0.7,0.9-1.5c0-0.2,0.1-0.3,0.2-0.3c0.2,0,0.2,0.2,0.2,0.4c0,0.5-0.2,1.8-0.3,2.2c-0.1,0.5-0.3,0.5-1.1,0.5
		c-1.5,0-2.6,0-3.5-0.1c-0.9,0-1.5-0.1-2.1-0.1c-0.2,0-0.7,0-1.1,0c-0.5,0-1,0-1.4,0c-0.3,0-0.4-0.1-0.4-0.2c0-0.1,0.1-0.2,0.3-0.2
		c0.3,0,0.5,0,0.7-0.1c0.4-0.1,0.5-0.5,0.6-1.1c0.1-0.8,0.1-2.4,0.1-4.3V17.9z"/>
</g>
<g id="XMLID_42_">
	<path id="XMLID_43_" class="st0" d="M1.3,45.4h6.3v1.3H2.8v3.9h4.4v1.2H2.8v5.3H1.3V45.4z"/>
	<path id="XMLID_45_" class="st0" d="M16.7,52.8c0,3.1-2.2,4.4-4.2,4.4c-2.2,0-4-1.7-4-4.3c0-2.8,1.8-4.4,4.1-4.4
		C15.1,48.5,16.7,50.3,16.7,52.8z M10.1,52.9c0,1.8,1,3.2,2.5,3.2c1.4,0,2.5-1.4,2.5-3.2c0-1.4-0.7-3.2-2.5-3.2
		C10.8,49.7,10.1,51.3,10.1,52.9z"/>
	<path id="XMLID_48_" class="st0" d="M18.6,51.3c0-1,0-1.8-0.1-2.6h1.3l0.1,1.7H20c0.4-1.1,1.3-1.8,2.3-1.8c0.2,0,0.3,0,0.4,0V50
		c-0.2,0-0.3,0-0.5,0c-1.1,0-1.8,0.8-2,1.9c0,0.2-0.1,0.5-0.1,0.7v4.4h-1.5V51.3z"/>
	<path id="XMLID_50_" class="st0" d="M29.4,45.4v11.6h-1.5V45.4H29.4z"/>
	<path id="XMLID_52_" class="st0" d="M32.2,51c0-0.9,0-1.6-0.1-2.3h1.3l0.1,1.4h0c0.4-0.8,1.4-1.6,2.8-1.6c1.2,0,2.9,0.7,2.9,3.6v5
		h-1.5v-4.8c0-1.3-0.5-2.5-1.9-2.5c-1,0-1.8,0.7-2,1.6c-0.1,0.2-0.1,0.4-0.1,0.7v5h-1.5V51z"/>
	<path id="XMLID_54_" class="st0" d="M43.5,46.7v2h2.2v1.2h-2.2v4.5c0,1,0.3,1.6,1.1,1.6c0.4,0,0.7,0,0.9-0.1l0.1,1.2
		c-0.3,0.1-0.8,0.2-1.3,0.2c-0.7,0-1.3-0.2-1.6-0.6c-0.4-0.5-0.6-1.2-0.6-2.2v-4.6h-1.3v-1.2H42v-1.6L43.5,46.7z"/>
	<path id="XMLID_56_" class="st0" d="M48.1,53.2c0,2.1,1.3,2.9,2.9,2.9c1.1,0,1.8-0.2,2.3-0.4l0.3,1.1c-0.5,0.2-1.5,0.5-2.8,0.5
		c-2.6,0-4.1-1.7-4.1-4.2c0-2.5,1.5-4.5,3.9-4.5c2.7,0,3.4,2.4,3.4,3.9c0,0.3,0,0.5-0.1,0.7H48.1z M52.6,52.1c0-0.9-0.4-2.4-2.1-2.4
		c-1.6,0-2.2,1.4-2.3,2.4H52.6z"/>
	<path id="XMLID_59_" class="st0" d="M55.9,51.3c0-1,0-1.8-0.1-2.6h1.3l0.1,1.7h0.1c0.4-1.1,1.3-1.8,2.3-1.8c0.2,0,0.3,0,0.4,0V50
		c-0.2,0-0.3,0-0.5,0c-1.1,0-1.8,0.8-2,1.9c0,0.2-0.1,0.5-0.1,0.7v4.4h-1.5V51.3z"/>
	<path id="XMLID_61_" class="st0" d="M61.6,51c0-0.9,0-1.6-0.1-2.3h1.3l0.1,1.4h0c0.4-0.8,1.4-1.6,2.8-1.6c1.2,0,2.9,0.7,2.9,3.6v5
		h-1.5v-4.8c0-1.3-0.5-2.5-1.9-2.5c-1,0-1.8,0.7-2,1.6c-0.1,0.2-0.1,0.4-0.1,0.7v5h-1.5V51z"/>
	<path id="XMLID_63_" class="st0" d="M77.1,55.1c0,0.7,0,1.4,0.1,2h-1.4L75.7,56h-0.1c-0.5,0.7-1.4,1.2-2.6,1.2
		c-1.7,0-2.6-1.2-2.6-2.4c0-2,1.8-3.1,5-3.1v-0.2c0-0.7-0.2-1.9-1.9-1.9c-0.8,0-1.6,0.2-2.2,0.6l-0.3-1c0.7-0.4,1.7-0.7,2.8-0.7
		c2.6,0,3.2,1.7,3.2,3.4V55.1z M75.6,52.8c-1.7,0-3.5,0.3-3.5,1.9c0,1,0.7,1.4,1.4,1.4c1.1,0,1.8-0.7,2.1-1.4
		c0.1-0.2,0.1-0.3,0.1-0.5V52.8z"/>
	<path id="XMLID_66_" class="st0" d="M81.3,46.7v2h2.2v1.2h-2.2v4.5c0,1,0.3,1.6,1.1,1.6c0.4,0,0.7,0,0.9-0.1l0.1,1.2
		c-0.3,0.1-0.8,0.2-1.3,0.2c-0.7,0-1.3-0.2-1.6-0.6c-0.4-0.5-0.6-1.2-0.6-2.2v-4.6h-1.3v-1.2h1.3v-1.6L81.3,46.7z"/>
	<path id="XMLID_68_" class="st0" d="M86.9,46.4c0,0.5-0.4,0.9-1,0.9c-0.6,0-0.9-0.4-0.9-0.9s0.4-0.9,0.9-0.9
		C86.5,45.4,86.9,45.8,86.9,46.4z M85.2,57.1v-8.3h1.5v8.3H85.2z"/>
	<path id="XMLID_71_" class="st0" d="M96.8,52.8c0,3.1-2.2,4.4-4.2,4.4c-2.2,0-4-1.7-4-4.3c0-2.8,1.8-4.4,4.1-4.4
		C95.1,48.5,96.8,50.3,96.8,52.8z M90.2,52.9c0,1.8,1,3.2,2.5,3.2c1.4,0,2.5-1.4,2.5-3.2c0-1.4-0.7-3.2-2.5-3.2
		C90.9,49.7,90.2,51.3,90.2,52.9z"/>
	<path id="XMLID_74_" class="st0" d="M98.7,51c0-0.9,0-1.6-0.1-2.3h1.3l0.1,1.4h0c0.4-0.8,1.4-1.6,2.8-1.6c1.2,0,2.9,0.7,2.9,3.6v5
		h-1.5v-4.8c0-1.3-0.5-2.5-1.9-2.5c-1,0-1.8,0.7-2,1.6c-0.1,0.2-0.1,0.4-0.1,0.7v5h-1.5V51z"/>
	<path id="XMLID_76_" class="st0" d="M114.1,55.1c0,0.7,0,1.4,0.1,2h-1.4l-0.1-1.1h-0.1c-0.5,0.7-1.4,1.2-2.6,1.2
		c-1.7,0-2.6-1.2-2.6-2.4c0-2,1.8-3.1,5-3.1v-0.2c0-0.7-0.2-1.9-1.9-1.9c-0.8,0-1.6,0.2-2.2,0.6l-0.3-1c0.7-0.4,1.7-0.7,2.8-0.7
		c2.6,0,3.2,1.7,3.2,3.4V55.1z M112.6,52.8c-1.7,0-3.5,0.3-3.5,1.9c0,1,0.7,1.4,1.4,1.4c1.1,0,1.8-0.7,2.1-1.4
		c0.1-0.2,0.1-0.3,0.1-0.5V52.8z"/>
	<path id="XMLID_79_" class="st0" d="M116.6,44.8h1.5v12.2h-1.5V44.8z"/>
	<path id="XMLID_82_" class="st0" d="M124.3,45.6c0.9-0.2,2-0.3,3.2-0.3c2.2,0,3.7,0.5,4.7,1.4c1.1,0.9,1.7,2.3,1.7,4.2
		c0,1.9-0.6,3.4-1.7,4.5c-1.1,1.1-2.9,1.7-5.2,1.7c-1.1,0-2-0.1-2.7-0.1V45.6z M125.8,55.9c0.4,0.1,0.9,0.1,1.5,0.1
		c3.2,0,4.9-1.8,4.9-4.9c0-2.7-1.5-4.5-4.7-4.5c-0.8,0-1.4,0.1-1.8,0.2V55.9z"/>
	<path id="XMLID_85_" class="st0" d="M136.7,53.2c0,2.1,1.3,2.9,2.9,2.9c1.1,0,1.8-0.2,2.3-0.4l0.3,1.1c-0.5,0.2-1.5,0.5-2.8,0.5
		c-2.6,0-4.1-1.7-4.1-4.2c0-2.5,1.5-4.5,3.9-4.5c2.7,0,3.4,2.4,3.4,3.9c0,0.3,0,0.5-0.1,0.7H136.7z M141.1,52.1
		c0-0.9-0.4-2.4-2.1-2.4c-1.6,0-2.2,1.4-2.3,2.4H141.1z"/>
	<path id="XMLID_88_" class="st0" d="M145.1,48.7l1.6,4.7c0.3,0.8,0.5,1.5,0.7,2.2h0.1c0.2-0.7,0.4-1.4,0.7-2.2l1.6-4.7h1.6
		l-3.3,8.3h-1.4l-3.2-8.3H145.1z"/>
	<path id="XMLID_90_" class="st0" d="M153.5,53.2c0,2.1,1.3,2.9,2.9,2.9c1.1,0,1.8-0.2,2.3-0.4l0.3,1.1c-0.5,0.2-1.5,0.5-2.8,0.5
		c-2.6,0-4.1-1.7-4.1-4.2c0-2.5,1.5-4.5,3.9-4.5c2.7,0,3.4,2.4,3.4,3.9c0,0.3,0,0.5-0.1,0.7H153.5z M157.9,52.1
		c0-0.9-0.4-2.4-2.1-2.4c-1.6,0-2.2,1.4-2.3,2.4H157.9z"/>
	<path id="XMLID_93_" class="st0" d="M161.3,44.8h1.5v12.2h-1.5V44.8z"/>
	<path id="XMLID_95_" class="st0" d="M172.9,52.8c0,3.1-2.2,4.4-4.2,4.4c-2.2,0-4-1.7-4-4.3c0-2.8,1.8-4.4,4.1-4.4
		C171.3,48.5,172.9,50.3,172.9,52.8z M166.3,52.9c0,1.8,1,3.2,2.5,3.2c1.4,0,2.5-1.4,2.5-3.2c0-1.4-0.7-3.2-2.5-3.2
		C167.1,49.7,166.3,51.3,166.3,52.9z"/>
	<path id="XMLID_98_" class="st0" d="M174.8,51.4c0-1.1,0-1.9-0.1-2.7h1.3l0.1,1.4h0c0.6-1,1.6-1.6,3-1.6c2,0,3.6,1.7,3.6,4.2
		c0,3-1.8,4.5-3.8,4.5c-1.1,0-2.1-0.5-2.6-1.3h0v4.5h-1.5V51.4z M176.3,53.7c0,0.2,0,0.4,0.1,0.6c0.3,1.1,1.2,1.8,2.3,1.8
		c1.6,0,2.5-1.3,2.5-3.2c0-1.7-0.9-3.1-2.5-3.1c-1,0-2,0.7-2.3,1.9c-0.1,0.2-0.1,0.4-0.1,0.6V53.7z"/>
	<path id="XMLID_101_" class="st0" d="M184.6,51c0-0.9,0-1.6-0.1-2.3h1.3l0.1,1.4h0.1c0.5-0.8,1.2-1.5,2.6-1.5c1.1,0,2,0.7,2.3,1.7
		h0c0.3-0.5,0.6-0.8,0.9-1.1c0.5-0.4,1-0.6,1.8-0.6c1.1,0,2.8,0.7,2.8,3.6v4.9h-1.5v-4.7c0-1.6-0.6-2.6-1.8-2.6
		c-0.9,0-1.5,0.6-1.8,1.4c-0.1,0.2-0.1,0.5-0.1,0.8v5.2h-1.5v-5c0-1.3-0.6-2.3-1.7-2.3c-0.9,0-1.6,0.8-1.9,1.5
		c-0.1,0.2-0.1,0.5-0.1,0.7v5h-1.5V51z"/>
	<path id="XMLID_103_" class="st0" d="M199.8,53.2c0,2.1,1.3,2.9,2.9,2.9c1.1,0,1.8-0.2,2.3-0.4l0.3,1.1c-0.5,0.2-1.5,0.5-2.8,0.5
		c-2.6,0-4.1-1.7-4.1-4.2c0-2.5,1.5-4.5,3.9-4.5c2.7,0,3.4,2.4,3.4,3.9c0,0.3,0,0.5-0.1,0.7H199.8z M204.3,52.1
		c0-0.9-0.4-2.4-2.1-2.4c-1.6,0-2.2,1.4-2.3,2.4H204.3z"/>
	<path id="XMLID_106_" class="st0" d="M207.6,51c0-0.9,0-1.6-0.1-2.3h1.3l0.1,1.4h0c0.4-0.8,1.4-1.6,2.8-1.6c1.2,0,2.9,0.7,2.9,3.6
		v5h-1.5v-4.8c0-1.3-0.5-2.5-1.9-2.5c-1,0-1.8,0.7-2,1.6c-0.1,0.2-0.1,0.4-0.1,0.7v5h-1.5V51z"/>
	<path id="XMLID_108_" class="st0" d="M219,46.7v2h2.2v1.2H219v4.5c0,1,0.3,1.6,1.1,1.6c0.4,0,0.7,0,0.9-0.1l0.1,1.2
		c-0.3,0.1-0.8,0.2-1.3,0.2c-0.7,0-1.3-0.2-1.6-0.6c-0.4-0.5-0.6-1.2-0.6-2.2v-4.6h-1.3v-1.2h1.3v-1.6L219,46.7z"/>
	<path id="XMLID_110_" class="st0" d="M226.6,45.6c0.8-0.1,1.9-0.2,2.9-0.2c1.6,0,2.7,0.3,3.4,0.9c0.6,0.5,0.9,1.3,0.9,2.2
		c0,1.5-1,2.5-2.2,2.9v0.1c0.9,0.3,1.4,1.1,1.7,2.3c0.4,1.6,0.7,2.7,0.9,3.2h-1.6c-0.2-0.3-0.4-1.3-0.8-2.8c-0.3-1.6-1-2.2-2.3-2.3
		h-1.4v5h-1.5V45.6z M228.1,50.9h1.5c1.6,0,2.6-0.9,2.6-2.2c0-1.5-1.1-2.2-2.7-2.2c-0.7,0-1.2,0.1-1.5,0.1V50.9z"/>
	<path id="XMLID_113_" class="st0" d="M236.7,53.2c0,2.1,1.3,2.9,2.9,2.9c1.1,0,1.8-0.2,2.3-0.4l0.3,1.1c-0.5,0.2-1.5,0.5-2.8,0.5
		c-2.6,0-4.1-1.7-4.1-4.2c0-2.5,1.5-4.5,3.9-4.5c2.7,0,3.4,2.4,3.4,3.9c0,0.3,0,0.5-0.1,0.7H236.7z M241.2,52.1
		c0-0.9-0.4-2.4-2.1-2.4c-1.6,0-2.2,1.4-2.3,2.4H241.2z"/>
	<path id="XMLID_116_" class="st0" d="M244.3,55.5c0.5,0.3,1.3,0.6,2,0.6c1.1,0,1.6-0.5,1.6-1.2c0-0.7-0.4-1.1-1.5-1.5
		c-1.5-0.6-2.2-1.4-2.2-2.4c0-1.3,1.1-2.4,2.9-2.4c0.8,0,1.6,0.2,2,0.5l-0.4,1.1c-0.3-0.2-0.9-0.5-1.7-0.5c-0.9,0-1.4,0.5-1.4,1.1
		c0,0.7,0.5,1,1.6,1.4c1.4,0.5,2.2,1.3,2.2,2.5c0,1.5-1.2,2.5-3.1,2.5c-0.9,0-1.8-0.2-2.3-0.6L244.3,55.5z"/>
	<path id="XMLID_118_" class="st0" d="M252.2,53.2c0,2.1,1.3,2.9,2.9,2.9c1.1,0,1.8-0.2,2.3-0.4l0.3,1.1c-0.5,0.2-1.5,0.5-2.8,0.5
		c-2.6,0-4.1-1.7-4.1-4.2c0-2.5,1.5-4.5,3.9-4.5c2.7,0,3.4,2.4,3.4,3.9c0,0.3,0,0.5-0.1,0.7H252.2z M256.6,52.1
		c0-0.9-0.4-2.4-2.1-2.4c-1.6,0-2.2,1.4-2.3,2.4H256.6z"/>
	<path id="XMLID_121_" class="st0" d="M265.8,55.1c0,0.7,0,1.4,0.1,2h-1.4l-0.1-1.1h-0.1c-0.5,0.7-1.4,1.2-2.6,1.2
		c-1.7,0-2.6-1.2-2.6-2.4c0-2,1.8-3.1,5-3.1v-0.2c0-0.7-0.2-1.9-1.9-1.9c-0.8,0-1.6,0.2-2.2,0.6l-0.3-1c0.7-0.4,1.7-0.7,2.8-0.7
		c2.6,0,3.2,1.7,3.2,3.4V55.1z M264.4,52.8c-1.7,0-3.5,0.3-3.5,1.9c0,1,0.7,1.4,1.4,1.4c1.1,0,1.8-0.7,2.1-1.4
		c0.1-0.2,0.1-0.3,0.1-0.5V52.8z"/>
	<path id="XMLID_124_" class="st0" d="M268.3,51.3c0-1,0-1.8-0.1-2.6h1.3l0.1,1.7h0.1c0.4-1.1,1.3-1.8,2.3-1.8c0.2,0,0.3,0,0.4,0V50
		c-0.2,0-0.3,0-0.5,0c-1.1,0-1.8,0.8-2,1.9c0,0.2-0.1,0.5-0.1,0.7v4.4h-1.5V51.3z"/>
	<path id="XMLID_126_" class="st0" d="M279.7,56.8c-0.4,0.2-1.3,0.5-2.4,0.5c-2.5,0-4.2-1.7-4.2-4.3c0-2.6,1.8-4.4,4.5-4.4
		c0.9,0,1.7,0.2,2.1,0.4l-0.3,1.2c-0.4-0.2-0.9-0.4-1.8-0.4c-1.9,0-2.9,1.4-2.9,3.2c0,1.9,1.2,3.1,2.9,3.1c0.9,0,1.4-0.2,1.9-0.4
		L279.7,56.8z"/>
	<path id="XMLID_128_" class="st0" d="M281.5,44.8h1.5V50h0c0.2-0.4,0.6-0.8,1.1-1.1c0.4-0.3,1-0.4,1.6-0.4c1.1,0,2.9,0.7,2.9,3.6v5
		h-1.5v-4.8c0-1.3-0.5-2.5-1.9-2.5c-1,0-1.7,0.7-2,1.5c-0.1,0.2-0.1,0.4-0.1,0.7v5h-1.5V44.8z"/>
</g>
</svg>
