<?xml version="1.0" encoding="utf-8"?>
<!-- Generator: Adobe Illustrator 19.0.0, SVG Export Plug-In . SVG Version: 6.00 Build 0)  -->
<svg version="1.1" id="Layer_1" xmlns="http://www.w3.org/2000/svg" xmlns:xlink="http://www.w3.org/1999/xlink" x="0px" y="0px"
	 viewBox="-275 267.1 289.8 61.2" style="enable-background:new -275 267.1 289.8 61.2;" xml:space="preserve">
<style type="text/css">
	.st0{fill:#FFFFFF;}
</style>
<g>
	<path class="st0" d="M-163.3,282.9c-0.1,0-0.1,0.1-0.1,0.2l-1.8,4.9c0,0.1,0,0.1,0.1,0.1h3.6c0.1,0,0.1-0.1,0.1-0.1l-1.8-4.9
		C-163.2,283-163.2,282.9-163.3,282.9z"/>
	<path class="st0" d="M-53,282.9c-0.1,0-0.1,0.1-0.1,0.2l-1.8,4.9c0,0.1,0,0.1,0.1,0.1h3.6c0.1,0,0.1-0.1,0.1-0.1l-1.8-4.9
		C-52.9,283-52.9,282.9-53,282.9z"/>
	<path class="st0" d="M-275,267.1v38.5H14.8v-38.5H-275z M-250.2,281.7c0,0.2-0.1,0.3-0.2,0.3c-0.2,0-0.2-0.1-0.2-0.4v-0.2
		c0-0.5-0.6-1.1-2.4-1.1l-2.5-0.1v8.2c0,1.8,0,3.4,0.1,4.3c0.1,0.6,0.2,1,0.8,1.1c0.3,0,0.7,0.1,1,0.1c0.2,0,0.3,0.1,0.3,0.2
		c0,0.1-0.2,0.2-0.4,0.2c-1.3,0-2.6-0.1-3.1-0.1s-1.7,0.1-2.5,0.1c-0.3,0-0.4-0.1-0.4-0.2c0-0.1,0.1-0.2,0.3-0.2
		c0.3,0,0.5,0,0.7-0.1c0.4-0.1,0.5-0.5,0.6-1.1c0.1-0.8,0.1-2.4,0.1-4.3v-8.1l-3,0.1c-1.2,0-1.6,0.1-1.9,0.6
		c-0.2,0.3-0.3,0.5-0.3,0.7s-0.1,0.2-0.2,0.2c-0.1,0-0.2-0.1-0.2-0.3c0-0.3,0.4-2.1,0.4-2.3c0.1-0.3,0.1-0.4,0.2-0.4
		c0.2,0,0.4,0.2,0.9,0.2c0.6,0.1,1.3,0.1,2,0.1h7.9c0.6,0,1.1-0.1,1.4-0.1c0.3-0.1,0.5-0.1,0.5-0.1c0.1,0,0.2,0.1,0.2,0.4
		C-250.1,279.8-250.2,281.2-250.2,281.7z M-231.8,294.5c-1.3,0-2.6-0.1-3.1-0.1s-1.7,0.1-2.5,0.1c-0.3,0-0.4-0.1-0.4-0.2
		c0-0.1,0.1-0.2,0.3-0.2c0.3,0,0.5,0,0.7-0.1c0.4-0.1,0.5-0.5,0.6-1.1c0.1-0.8,0.1-2.4,0.1-4.3v-1.8c0-0.1-0.1-0.1-0.1-0.1h-7.6
		c-0.1,0-0.1,0-0.1,0.1v1.8c0,1.8,0,3.4,0.1,4.3c0.1,0.6,0.2,1,0.8,1.1c0.3,0,0.7,0.1,1,0.1c0.2,0,0.3,0.1,0.3,0.2
		c0,0.1-0.2,0.2-0.4,0.2c-1.3,0-2.6-0.1-3.1-0.1s-1.7,0.1-2.5,0.1c-0.3,0-0.4-0.1-0.4-0.2c0-0.1,0.1-0.2,0.3-0.2
		c0.3,0,0.5,0,0.7-0.1c0.4-0.1,0.5-0.5,0.6-1.1c0.1-0.8,0.1-2.4,0.1-4.3v-3.5c0-3,0-3.6,0-4.2c0-0.7-0.2-1-0.9-1.1
		c-0.2,0-0.5-0.1-0.8-0.1c-0.2,0-0.3,0-0.3-0.2c0-0.2,0.1-0.2,0.4-0.2c1.1,0,2.3,0.1,2.9,0.1c0.5,0,1.7-0.1,2.5-0.1
		c0.3,0,0.4,0,0.4,0.2c0,0.2-0.1,0.2-0.4,0.2c-0.2,0-0.3,0-0.6,0.1c-0.5,0.1-0.7,0.4-0.7,1.1c0,0.6,0,1.2,0,4.2v0.4
		c0,0.1,0.1,0.1,0.1,0.1h7.6c0.1,0,0.1,0,0.1-0.1v-0.4c0-3,0-3.6,0-4.2c0-0.7-0.2-1-0.9-1.1c-0.2,0-0.5-0.1-0.8-0.1
		c-0.2,0-0.3,0-0.3-0.2c0-0.2,0.1-0.2,0.4-0.2c1.1,0,2.3,0.1,2.9,0.1c0.5,0,1.7-0.1,2.5-0.1c0.3,0,0.4,0,0.4,0.2
		c0,0.2-0.1,0.2-0.4,0.2c-0.2,0-0.3,0-0.6,0.1c-0.5,0.1-0.7,0.4-0.7,1.1c0,0.6,0,1.2,0,4.2v3.5c0,1.8,0,3.4,0.1,4.3
		c0.1,0.6,0.2,1,0.8,1.1c0.3,0,0.7,0.1,1,0.1c0.2,0,0.3,0.1,0.3,0.2C-231.4,294.4-231.6,294.5-231.8,294.5z M-219.2,293.9
		c-0.1,0.5-0.3,0.5-1.1,0.5c-1.5,0-2.6,0-3.5-0.1c-0.9,0-1.5-0.1-2.1-0.1c-0.2,0-0.7,0-1.1,0c-0.5,0-1,0-1.4,0
		c-0.3,0-0.4-0.1-0.4-0.2c0-0.1,0.1-0.2,0.3-0.2c0.3,0,0.5,0,0.7-0.1c0.4-0.1,0.5-0.5,0.6-1.1c0.1-0.8,0.1-2.4,0.1-4.3V285h0.1
		c0-3,0-3.6,0-4.2c0-0.7-0.2-1-0.9-1.1c-0.2,0-0.5-0.1-0.8-0.1c-0.2,0-0.3,0-0.3-0.2s0.1-0.2,0.4-0.2c0.5,0,1.1,0,1.6,0s1,0,1.3,0
		c0.6,0,4.6,0,5,0c0.4,0,0.7-0.1,0.9-0.1c0.1,0,0.2-0.1,0.3-0.1s0.1,0.1,0.1,0.2s-0.1,0.4-0.2,1.3c0,0.2-0.1,1.1-0.1,1.3
		c0,0.1-0.1,0.2-0.2,0.2c-0.1,0-0.2-0.1-0.2-0.3c0-0.1,0-0.5-0.1-0.7c-0.1-0.4-0.3-0.6-1.3-0.7c-0.3,0-2.4-0.1-2.8-0.1
		c-0.1,0-0.1,0.1-0.1,0.2v5.1c0,0.1,0,0.2,0.1,0.2c0.4,0,2.7,0,3.2,0s0.8-0.1,1-0.3c0.1-0.2,0.2-0.3,0.3-0.3c0.1,0,0.1,0,0.1,0.2
		c0,0.2-0.1,0.4-0.2,1.5c0,0.4-0.1,1.2-0.1,1.3c0,0.2,0,0.4-0.2,0.4c-0.1,0-0.2-0.1-0.2-0.2c0-0.2,0-0.5-0.1-0.7
		c-0.1-0.4-0.4-0.7-1.1-0.8c-0.4,0-2.4-0.1-2.8-0.1c-0.1,0-0.1,0.1-0.1,0.2v1.6c0,0.7,0,2.5,0,3.1c0,1.4,0.4,1.7,2.4,1.7
		c0.5,0,1.4,0,1.9-0.2s0.8-0.7,0.9-1.5c0-0.2,0.1-0.3,0.2-0.3c0.2,0,0.2,0.2,0.2,0.4C-218.9,292.2-219.1,293.5-219.2,293.9z
		 M-204,294.4c-1.3,0-2.6-0.1-3.1-0.1s-1.7,0.1-2.5,0.1c-0.3,0-0.4-0.1-0.4-0.2c0-0.1,0.1-0.2,0.3-0.2c0.3,0,0.5,0,0.7-0.1
		c0.4-0.1,0.5-0.4,0.6-1c0.1-0.8,0.1-2.4,0.1-4.4V285h-0.1c0-3,0-3.6,0-4.2c0-0.7-0.2-1-0.7-1.1c-0.2-0.1-0.5-0.1-0.7-0.1
		s-0.3,0-0.3-0.2c0-0.1,0.2-0.2,0.5-0.2c0.8,0,2,0.1,2.6,0.1c0.5,0,1.7-0.1,2.4-0.1c0.3,0,0.4,0,0.4,0.2s-0.1,0.2-0.3,0.2
		s-0.4,0-0.6,0.1c-0.5,0.1-0.7,0.4-0.7,1.1c0,0.6,0,1.2,0,4.2v3.5c0,1.9,0,3.5,0.1,4.4c0.1,0.5,0.2,0.9,0.8,1c0.3,0,0.7,0.1,1,0.1
		c0.2,0,0.3,0.1,0.3,0.2C-203.6,294.3-203.8,294.4-204,294.4z M-182.3,294.3c-0.5,0-3.3-0.1-4.1-0.1c-0.5,0-0.6-0.1-0.6-0.2
		c0-0.1,0.1-0.2,0.2-0.2s0.2-0.3,0.1-0.9l-1-8.8h-0.1l-4.4,9.1c-0.5,0.9-0.6,1.1-0.7,1.1c-0.1,0-0.4-0.4-0.7-1
		c-0.5-0.9-2.1-4-2.3-4.5c-0.2-0.4-1.4-2.9-2.1-4.4h-0.1l-1,8c0,0.4-0.1,0.6-0.1,0.9c0,0.4,0.3,0.6,0.6,0.6c0.4,0.1,0.6,0.1,0.8,0.1
		s0.3,0,0.3,0.1c0,0.2-0.2,0.2-0.5,0.2c-0.8,0-1.7-0.1-2.1-0.1s-1.3,0.1-2,0.1c-0.2,0-0.4,0-0.4-0.2c0-0.1,0.1-0.1,0.3-0.1
		c0.2,0,0.3,0,0.6-0.1c0.6-0.1,0.7-0.9,0.8-1.6l2.2-13c0.1-0.3,0.2-0.5,0.3-0.5c0.1,0,0.3,0.1,0.5,0.6l5.5,11.3l5.4-11.4
		c0.2-0.3,0.3-0.5,0.4-0.5c0.2,0,0.3,0.2,0.4,0.6l1.8,12.4c0.2,1.3,0.4,1.8,1,2c0.6,0.2,1,0.2,1.2,0.2s0.3,0,0.3,0.1
		C-181.8,294.3-182,294.3-182.3,294.3z M-174.2,294.4c-1.3,0-2.6-0.1-3.1-0.1s-1.7,0.1-2.5,0.1c-0.3,0-0.4-0.1-0.4-0.2
		c0-0.1,0.1-0.2,0.3-0.2c0.3,0,0.5,0,0.7-0.1c0.4-0.1,0.5-0.5,0.6-1.1c0.1-0.8,0.1-2.4,0.1-4.3V285c0-3,0-3.6,0-4.2
		c0-0.7-0.2-1-0.9-1.1c-0.2,0-0.5-0.1-0.8-0.1c-0.2,0-0.3,0-0.3-0.2s0.1-0.2,0.4-0.2c1.1,0,2.3,0.1,2.9,0.1c0.8,0,2-0.1,2.9-0.1
		c2.5,0,3.4,0.8,3.7,1.1c0.4,0.4,1,1.3,1,2.4c0,2.8-2.1,4.8-4.9,4.8c-0.1,0-0.3,0-0.4,0c-0.1,0-0.2,0-0.2-0.2c0-0.2,0.1-0.2,0.6-0.2
		c1.1,0,2.7-1.3,2.7-3.3c0-0.7-0.1-2-1.2-3c-0.7-0.7-1.5-0.8-2-0.8c-0.3,0-0.6,0-0.8,0.1c-0.1,0-0.2,0.2-0.2,0.4v8
		c0,1.8,0,3.4,0.1,4.3c0.1,0.6,0.2,1,0.8,1.1c0.3,0,0.7,0.1,1,0.1c0.2,0,0.3,0.1,0.3,0.2C-173.8,294.3-174,294.4-174.2,294.4z
		 M-155.4,294.4c-0.7,0-2.2,0-3.8,0c-0.4,0-0.6,0-0.6-0.2c0-0.1,0.1-0.2,0.3-0.2c0.1,0,0.3-0.2,0.2-0.5l-1.6-4.2
		c0-0.1-0.1-0.1-0.2-0.1h-4.5v-0.1c-0.1,0-0.1,0-0.2,0.2l-1.1,2.9c-0.2,0.5-0.3,1-0.3,1.2c0,0.4,0.2,0.6,0.8,0.6h0.3
		c0.2,0,0.3,0,0.3,0.2s-0.1,0.2-0.3,0.2c-0.6,0-1.5-0.1-2.1-0.1c-0.2,0-1.3,0.1-2.4,0.1c-0.3,0-0.4,0-0.4-0.2c0-0.1,0.1-0.2,0.2-0.2
		c0.2,0,0.5,0,0.6,0c0.9-0.1,1.3-0.8,1.7-1.8l5-12.6c0.2-0.6,0.4-0.8,0.6-0.8c0.2,0,0.3,0.2,0.5,0.6c0.5,1.1,3.7,9.3,5,12.3
		c0.8,1.8,1.3,2.1,1.8,2.2c0.3,0.1,0.6,0.1,0.8,0.1s0.3,0,0.3,0.2S-154.7,294.4-155.4,294.4z M-141.1,293.7
		c-0.1,0.3-0.2,0.4-0.5,0.6c-0.8,0.3-2.3,0.5-3.6,0.5c-2.8-0.2-5.1-0.8-6.9-2.4c-2-1.7-2.5-4-2.5-5.9c0-1.4,0.4-3.7,2.3-5.5
		c1.4-1.3,3.3-2.1,6.3-2.1c1.2,0,2,0.1,2.9,0.2c0.8,0.1,1.4,0.3,2,0.3c0.2,0,0.3,0.1,0.3,0.2c0,0.2-0.1,0.4-0.1,1.1s0,1.8-0.1,2.2
		c0,0.3-0.1,0.5-0.2,0.5c-0.2,0-0.2-0.2-0.2-0.4c0-0.6-0.3-1.3-0.8-1.8c-0.7-0.7-2.2-1.2-4.1-1.2c-1.7,0-2.9,0.4-3.8,1.2
		c-1.5,1.3-1.8,3.2-1.8,5.2c0,4.8,3.6,7.1,6.3,7.1c1.8,0,2.9-0.2,3.7-1.1c0.3-0.4,0.6-1,0.7-1.3s0.1-0.4,0.3-0.4
		c0.1,0,0.2,0.1,0.2,0.3C-140.7,291.2-140.9,293-141.1,293.7z M-126,281.7c0,0.2-0.1,0.3-0.2,0.3c-0.2,0-0.2-0.1-0.2-0.4v-0.2
		c0-0.5-0.6-1.1-2.4-1.1l-2.5-0.1v8.2c0,1.8,0,3.4,0.1,4.3c0.1,0.6,0.2,1,0.8,1.1c0.3,0,0.7,0.1,1,0.1c0.2,0,0.3,0.1,0.3,0.2
		c0,0.1-0.2,0.2-0.4,0.2c-1.3,0-2.6-0.1-3.1-0.1s-1.7,0.1-2.5,0.1c-0.3,0-0.4-0.1-0.4-0.2c0-0.1,0.1-0.2,0.3-0.2
		c0.3,0,0.5,0,0.7-0.1c0.4-0.1,0.5-0.5,0.6-1.1c0.1-0.8,0.1-2.4,0.1-4.3v-8.1l-3,0.1c-1.2,0-1.6,0.1-1.9,0.6
		c-0.2,0.3-0.3,0.5-0.3,0.7s-0.1,0.2-0.2,0.2c-0.1,0-0.2-0.1-0.2-0.3c0-0.3,0.4-2.1,0.4-2.3c0.1-0.3,0.1-0.4,0.2-0.4
		c0.2,0,0.4,0.2,0.9,0.2c0.6,0.1,1.3,0.1,2,0.1h7.9c0.6,0,1.1-0.1,1.4-0.1c0.3-0.1,0.5-0.1,0.5-0.1c0.1,0,0.2,0.1,0.2,0.4
		C-125.9,279.8-126,281.2-126,281.7z M-111.9,294.4c-1.3,0-2.6-0.1-3.1-0.1s-1.7,0.1-2.5,0.1c-0.3,0-0.4-0.1-0.4-0.2
		c0-0.1,0.1-0.2,0.3-0.2c0.3,0,0.5,0,0.7-0.1c0.4-0.1,0.5-0.4,0.6-1c0.1-0.8,0.1-2.4,0.1-4.4V285h-0.1c0-3,0-3.6,0-4.2
		c0-0.7-0.2-1-0.7-1.1c-0.2-0.1-0.5-0.1-0.7-0.1c-0.2,0-0.3,0-0.3-0.2c0-0.1,0.2-0.2,0.5-0.2c0.8,0,2,0.1,2.6,0.1
		c0.5,0,1.7-0.1,2.4-0.1c0.3,0,0.4,0,0.4,0.2s-0.1,0.2-0.3,0.2c-0.2,0-0.4,0-0.6,0.1c-0.5,0.1-0.7,0.4-0.7,1.1c0,0.6,0,1.2,0,4.2
		v3.5c0,1.9,0,3.5,0.1,4.4c0.1,0.5,0.2,0.9,0.8,1c0.3,0,0.7,0.1,1,0.1c0.2,0,0.3,0.1,0.3,0.2C-111.5,294.3-111.7,294.4-111.9,294.4z
		 M-93.3,279.5c-0.2,0-0.4,0-0.6,0.1c-0.6,0.2-0.7,0.6-0.7,1.7l-0.2,12.6c0,0.4-0.1,0.6-0.3,0.6c-0.2,0-0.5-0.2-0.7-0.4
		c-1.3-1.2-3.8-3.8-5.9-5.9c-2.2-2.2-4.4-4.7-4.8-5h-0.1l0.5,8.4c0,1.6,0.3,2.1,0.7,2.2c0.3,0.1,0.7,0.1,1,0.1c0.2,0,0.3,0,0.3,0.2
		s-0.2,0.2-0.5,0.2c-1.3,0-2.1-0.1-2.5-0.1c-0.2,0-1.1,0.1-2.2,0.1c-0.3,0-0.4,0-0.4-0.2c0-0.1,0.1-0.2,0.3-0.2c0.3,0,0.6,0,0.9-0.1
		c0.5-0.2,0.6-0.7,0.6-2.5l0.2-11.8c0-0.4,0.1-0.7,0.3-0.7c0.2,0,0.4,0.3,0.7,0.6c0.2,0.3,3.3,3.5,6.2,6.4c1.4,1.4,4.1,4.2,4.4,4.6
		h0.1l-0.2-9c0-1.2-0.2-1.6-0.7-1.8c-0.3-0.1-0.8-0.1-1.1-0.1c-0.2,0-0.3-0.1-0.3-0.2c0-0.2,0.2-0.2,0.5-0.2c1,0,2,0.1,2.4,0.1
		c0.2,0,1-0.1,2-0.1c0.3,0,0.5,0,0.5,0.2C-92.9,279.4-93,279.5-93.3,279.5z M-83.9,294.4c-1.3,0-2.6-0.1-3.1-0.1s-1.7,0.1-2.5,0.1
		c-0.3,0-0.4-0.1-0.4-0.2c0-0.1,0.1-0.2,0.3-0.2c0.3,0,0.5,0,0.7-0.1c0.4-0.1,0.5-0.4,0.6-1c0.1-0.8,0.1-2.4,0.1-4.4V285h-0.1
		c0-3,0-3.6,0-4.2c0-0.7-0.2-1-0.7-1.1c-0.2-0.1-0.5-0.1-0.7-0.1c-0.2,0-0.3,0-0.3-0.2c0-0.1,0.2-0.2,0.5-0.2c0.8,0,2,0.1,2.6,0.1
		c0.5,0,1.7-0.1,2.4-0.1c0.3,0,0.4,0,0.4,0.2s-0.1,0.2-0.3,0.2c-0.2,0-0.4,0-0.6,0.1c-0.5,0.1-0.7,0.4-0.7,1.1c0,0.6,0,1.2,0,4.2
		v3.5c0,1.9,0,3.5,0.1,4.4c0.1,0.5,0.2,0.9,0.8,1c0.3,0,0.7,0.1,1,0.1c0.2,0,0.3,0.1,0.3,0.2C-83.5,294.3-83.7,294.4-83.9,294.4z
		 M-68.8,281.7c0,0.2-0.1,0.3-0.2,0.3c-0.2,0-0.2-0.1-0.2-0.4v-0.2c0-0.5-0.6-1.1-2.4-1.1l-2.5-0.1v8.2c0,1.8,0,3.4,0.1,4.3
		c0.1,0.6,0.2,1,0.8,1.1c0.3,0,0.7,0.1,1,0.1c0.2,0,0.3,0.1,0.3,0.2c0,0.1-0.2,0.2-0.4,0.2c-1.3,0-2.6-0.1-3.1-0.1s-1.7,0.1-2.5,0.1
		c-0.3,0-0.4-0.1-0.4-0.2c0-0.1,0.1-0.2,0.3-0.2c0.3,0,0.5,0,0.7-0.1c0.4-0.1,0.5-0.5,0.6-1.1c0.1-0.8,0.1-2.4,0.1-4.3v-8.1l-3,0.1
		c-1.2,0-1.6,0.1-1.9,0.6c-0.2,0.3-0.3,0.5-0.3,0.7s-0.1,0.2-0.2,0.2s-0.2-0.1-0.2-0.3c0-0.3,0.4-2.1,0.4-2.3
		c0.1-0.3,0.1-0.4,0.2-0.4c0.2,0,0.4,0.2,0.9,0.2c0.6,0.1,1.3,0.1,2,0.1h7.9c0.6,0,1.1-0.1,1.4-0.1c0.3-0.1,0.5-0.1,0.5-0.1
		c0.1,0,0.2,0.1,0.2,0.4C-68.7,279.8-68.8,281.2-68.8,281.7z M-45,294.4c-0.7,0-2.2,0-3.8,0c-0.4,0-0.6,0-0.6-0.2
		c0-0.1,0.1-0.2,0.3-0.2c0.1,0,0.3-0.2,0.2-0.5l-1.6-4.2c0-0.1-0.1-0.1-0.2-0.1h-4.5v-0.1c-0.1,0-0.1,0-0.2,0.2l-1.1,2.9
		c-0.2,0.5-0.3,1-0.3,1.2c0,0.4,0.2,0.6,0.8,0.6h0.3c0.2,0,0.3,0,0.3,0.2s-0.1,0.2-0.3,0.2c-0.6,0-1.5-0.1-2.1-0.1
		c-0.2,0-1.3,0.1-2.4,0.1c-0.2,0-0.3,0-0.3,0c-0.1,0-0.1,0-0.2,0c-1.3,0-2.6-0.1-3.1-0.1s-1.7,0.1-2.5,0.1c-0.3,0-0.4-0.1-0.4-0.2
		c0-0.1,0.1-0.2,0.3-0.2c0.3,0,0.5,0,0.7-0.1c0.4-0.1,0.5-0.4,0.6-1c0.1-0.8,0.1-2.4,0.1-4.4V285h-0.1c0-3,0-3.6,0-4.2
		c0-0.7-0.2-1-0.7-1.1c-0.2-0.1-0.5-0.1-0.7-0.1s-0.3,0-0.3-0.2c0-0.1,0.2-0.2,0.5-0.2c0.8,0,2,0.1,2.6,0.1c0.5,0,1.7-0.1,2.4-0.1
		c0.3,0,0.4,0,0.4,0.2s-0.1,0.2-0.3,0.2s-0.4,0-0.6,0.1c-0.5,0.1-0.7,0.4-0.7,1.1c0,0.6,0,1.2,0,4.2v3.5c0,1.9,0,3.5,0.1,4.4
		c0.1,0.5,0.2,0.9,0.8,1c0.3,0,0.7,0.1,1,0.1c0.1,0,0.1,0,0.1,0c0,0,0,0,0.1,0c0.2,0,0.5,0,0.6,0c0.9-0.1,1.3-0.8,1.7-1.8l5-12.6
		c0.2-0.6,0.4-0.8,0.6-0.8s0.3,0.2,0.5,0.6c0.5,1.1,3.7,9.3,5,12.3c0.8,1.8,1.3,2.1,1.8,2.2c0.3,0.1,0.6,0.1,0.8,0.1s0.3,0,0.3,0.2
		S-44.3,294.4-45,294.4z M-32.9,281.7c0,0.2-0.1,0.3-0.2,0.3c-0.2,0-0.2-0.1-0.2-0.4v-0.2c0-0.5-0.6-1.1-2.4-1.1l-2.5-0.1v8.2
		c0,1.8,0,3.4,0.1,4.3c0.1,0.6,0.2,1,0.8,1.1c0.3,0,0.7,0.1,1,0.1c0.2,0,0.3,0.1,0.3,0.2c0,0.1-0.2,0.2-0.4,0.2
		c-1.3,0-2.6-0.1-3.1-0.1s-1.7,0.1-2.5,0.1c-0.3,0-0.4-0.1-0.4-0.2c0-0.1,0.1-0.2,0.3-0.2c0.3,0,0.5,0,0.7-0.1
		c0.4-0.1,0.5-0.5,0.6-1.1c0.1-0.8,0.1-2.4,0.1-4.3v-8.1h0l-3,0.1c-1.2,0-1.6,0.1-1.9,0.6c-0.2,0.3-0.3,0.5-0.3,0.7
		s-0.1,0.2-0.2,0.2c-0.1,0-0.2-0.1-0.2-0.3c0-0.3,0.4-2.1,0.4-2.3c0.1-0.3,0.1-0.4,0.2-0.4c0.2,0,0.4,0.2,0.9,0.2
		c0.6,0.1,1.3,0.1,2,0.1h7.9c0.6,0,1.1-0.1,1.4-0.1c0.3-0.1,0.5-0.1,0.5-0.1c0.1,0,0.2,0.1,0.2,0.4
		C-32.8,279.8-32.9,281.2-32.9,281.7z M-24.7,294.4c-1.3,0-2.6-0.1-3.1-0.1s-1.7,0.1-2.5,0.1c-0.3,0-0.4-0.1-0.4-0.2
		c0-0.1,0.1-0.2,0.3-0.2c0.3,0,0.5,0,0.7-0.1c0.4-0.1,0.5-0.4,0.6-1c0.1-0.8,0.1-2.4,0.1-4.4V285h-0.1c0-3,0-3.6,0-4.2
		c0-0.7-0.2-1-0.7-1.1c-0.2-0.1-0.5-0.1-0.7-0.1s-0.3,0-0.3-0.2c0-0.1,0.2-0.2,0.5-0.2c0.8,0,2,0.1,2.6,0.1c0.5,0,1.7-0.1,2.4-0.1
		c0.3,0,0.4,0,0.4,0.2s-0.1,0.2-0.3,0.2s-0.4,0-0.6,0.1c-0.5,0.1-0.7,0.4-0.7,1.1c0,0.6,0,1.2,0,4.2v3.5c0,1.9,0,3.5,0.1,4.4
		c0.1,0.5,0.2,0.9,0.8,1c0.3,0,0.7,0.1,1,0.1c0.2,0,0.3,0.1,0.3,0.2C-24.3,294.3-24.5,294.4-24.7,294.4z M-7.9,279.5
		c-0.2,0-0.6,0-1,0.2c-0.3,0.2-0.6,0.5-1.1,1.8c-0.8,1.9-1.3,3-2.4,5.4c-1.3,2.9-2.2,5.1-2.7,6.1c-0.5,1.2-0.6,1.5-0.9,1.5
		s-0.4-0.3-0.8-1.2l-5.1-12.1c-0.5-1.1-0.8-1.3-1.5-1.5c-0.3-0.1-0.6-0.1-0.8-0.1c-0.2,0-0.2-0.1-0.2-0.2c0-0.2,0.2-0.2,0.5-0.2
		c1.1,0,2.2,0.1,2.9,0.1c0.5,0,1.5-0.1,2.5-0.1c0.2,0,0.5,0,0.5,0.2s-0.1,0.2-0.3,0.2c-0.3,0-0.6,0-0.8,0.1
		c-0.1,0.1-0.2,0.2-0.2,0.4c0,0.3,0.2,0.8,0.5,1.5l3.4,9.1h0.1c0.9-2.2,3.5-8.6,3.9-10c0.1-0.3,0.2-0.6,0.2-0.7
		c0-0.2-0.1-0.3-0.3-0.4c-0.2-0.1-0.5-0.1-0.8-0.1c-0.2,0-0.3,0-0.3-0.2c0-0.2,0.2-0.2,0.6-0.2c1,0,1.8,0.1,2.1,0.1
		c0.3,0,1.3-0.1,1.9-0.1c0.3,0,0.4,0,0.4,0.2C-7.6,279.5-7.7,279.5-7.9,279.5z M2.2,293.9c-0.1,0.5-0.3,0.5-1.1,0.5
		c-1.5,0-2.6,0-3.5-0.1c-0.9,0-1.5-0.1-2.1-0.1c-0.2,0-0.7,0-1.1,0c-0.5,0-1,0-1.4,0c-0.3,0-0.4-0.1-0.4-0.2c0-0.1,0.1-0.2,0.3-0.2
		c0.3,0,0.5,0,0.7-0.1c0.4-0.1,0.5-0.5,0.6-1.1c0.1-0.8,0.1-2.4,0.1-4.3V285h0.1c0-3,0-3.6,0-4.2c0-0.7-0.2-1-0.9-1.1
		c-0.2,0-0.5-0.1-0.8-0.1c-0.2,0-0.3,0-0.3-0.2s0.1-0.2,0.4-0.2c0.5,0,1.1,0,1.6,0s1,0,1.3,0c0.6,0,4.6,0,5,0c0.4,0,0.7-0.1,0.9-0.1
		c0.1,0,0.2-0.1,0.3-0.1s0.1,0.1,0.1,0.2s-0.1,0.4-0.2,1.3c0,0.2-0.1,1.1-0.1,1.3c0,0.1-0.1,0.2-0.2,0.2c-0.1,0-0.2-0.1-0.2-0.3
		c0-0.1,0-0.5-0.1-0.7c-0.1-0.4-0.3-0.6-1.3-0.7c-0.3,0-2.4-0.1-2.8-0.1c-0.1,0-0.1,0.1-0.1,0.2v5.1c0,0.1,0,0.2,0.1,0.2
		c0.4,0,2.7,0,3.2,0s0.8-0.1,1-0.3c0.1-0.2,0.2-0.3,0.3-0.3c0.1,0,0.1,0,0.1,0.2c0,0.2-0.1,0.4-0.2,1.5c0,0.4-0.1,1.2-0.1,1.3
		c0,0.2,0,0.4-0.2,0.4c-0.1,0-0.2-0.1-0.2-0.2c0-0.2,0-0.5-0.1-0.7c-0.1-0.4-0.4-0.7-1.1-0.8c-0.4,0-2.4-0.1-2.8-0.1
		c-0.1,0-0.1,0.1-0.1,0.2v1.6c0,0.7,0,2.5,0,3.1c0,1.4,0.4,1.7,2.4,1.7c0.5,0,1.4,0,1.9-0.2s0.8-0.7,0.9-1.5c0-0.2,0.1-0.3,0.2-0.3
		c0.2,0,0.2,0.2,0.2,0.4C2.5,292.2,2.3,293.5,2.2,293.9z"/>
</g>
<g id="XMLID_42_">
	<path id="XMLID_43_" class="st0" d="M-273.7,312.5h6.3v1.3h-4.8v3.9h4.4v1.2h-4.4v5.3h-1.5V312.5z"/>
	<path id="XMLID_45_" class="st0" d="M-258.3,319.9c0,3.1-2.2,4.4-4.2,4.4c-2.2,0-4-1.7-4-4.3c0-2.8,1.8-4.4,4.1-4.4
		C-259.9,315.6-258.3,317.4-258.3,319.9z M-264.9,320c0,1.8,1,3.2,2.5,3.2c1.4,0,2.5-1.4,2.5-3.2c0-1.4-0.7-3.2-2.5-3.2
		C-264.2,316.8-264.9,318.4-264.9,320z"/>
	<path id="XMLID_48_" class="st0" d="M-256.4,318.4c0-1,0-1.8-0.1-2.6h1.3l0.1,1.7h0.1c0.4-1.1,1.3-1.8,2.3-1.8c0.2,0,0.3,0,0.4,0
		v1.4c-0.2,0-0.3,0-0.5,0c-1.1,0-1.8,0.8-2,1.9c0,0.2-0.1,0.5-0.1,0.7v4.4h-1.5C-256.4,324.1-256.4,318.4-256.4,318.4z"/>
	<path id="XMLID_50_" class="st0" d="M-245.6,312.5v11.6h-1.5v-11.6H-245.6z"/>
	<path id="XMLID_52_" class="st0" d="M-242.8,318.1c0-0.9,0-1.6-0.1-2.3h1.3l0.1,1.4l0,0c0.4-0.8,1.4-1.6,2.8-1.6
		c1.2,0,2.9,0.7,2.9,3.6v5h-1.5v-4.8c0-1.3-0.5-2.5-1.9-2.5c-1,0-1.8,0.7-2,1.6c-0.1,0.2-0.1,0.4-0.1,0.7v5h-1.5V318.1z"/>
	<path id="XMLID_54_" class="st0" d="M-231.5,313.8v2h2.2v1.2h-2.2v4.5c0,1,0.3,1.6,1.1,1.6c0.4,0,0.7,0,0.9-0.1l0.1,1.2
		c-0.3,0.1-0.8,0.2-1.3,0.2c-0.7,0-1.3-0.2-1.6-0.6c-0.4-0.5-0.6-1.2-0.6-2.2V317h-1.3v-1.2h1.2v-1.6L-231.5,313.8z"/>
	<path id="XMLID_56_" class="st0" d="M-226.9,320.3c0,2.1,1.3,2.9,2.9,2.9c1.1,0,1.8-0.2,2.3-0.4l0.3,1.1c-0.5,0.2-1.5,0.5-2.8,0.5
		c-2.6,0-4.1-1.7-4.1-4.2s1.5-4.5,3.9-4.5c2.7,0,3.4,2.4,3.4,3.9c0,0.3,0,0.5-0.1,0.7H-226.9z M-222.4,319.2c0-0.9-0.4-2.4-2.1-2.4
		c-1.6,0-2.2,1.4-2.3,2.4H-222.4z"/>
	<path id="XMLID_59_" class="st0" d="M-219.1,318.4c0-1,0-1.8-0.1-2.6h1.3l0.1,1.7h0.1c0.4-1.1,1.3-1.8,2.3-1.8c0.2,0,0.3,0,0.4,0
		v1.4c-0.2,0-0.3,0-0.5,0c-1.1,0-1.8,0.8-2,1.9c0,0.2-0.1,0.5-0.1,0.7v4.4h-1.5V318.4z"/>
	<path id="XMLID_61_" class="st0" d="M-213.4,318.1c0-0.9,0-1.6-0.1-2.3h1.3l0.1,1.4l0,0c0.4-0.8,1.4-1.6,2.8-1.6
		c1.2,0,2.9,0.7,2.9,3.6v5h-1.5v-4.8c0-1.3-0.5-2.5-1.9-2.5c-1,0-1.8,0.7-2,1.6c-0.1,0.2-0.1,0.4-0.1,0.7v5h-1.5V318.1z"/>
	<path id="XMLID_63_" class="st0" d="M-197.9,322.2c0,0.7,0,1.4,0.1,2h-1.4l-0.1-1.1h-0.1c-0.5,0.7-1.4,1.2-2.6,1.2
		c-1.7,0-2.6-1.2-2.6-2.4c0-2,1.8-3.1,5-3.1v-0.2c0-0.7-0.2-1.9-1.9-1.9c-0.8,0-1.6,0.2-2.2,0.6l-0.3-1c0.7-0.4,1.7-0.7,2.8-0.7
		c2.6,0,3.2,1.7,3.2,3.4v3.2H-197.9z M-199.4,319.9c-1.7,0-3.5,0.3-3.5,1.9c0,1,0.7,1.4,1.4,1.4c1.1,0,1.8-0.7,2.1-1.4
		c0.1-0.2,0.1-0.3,0.1-0.5L-199.4,319.9L-199.4,319.9z"/>
	<path id="XMLID_66_" class="st0" d="M-193.7,313.8v2h2.2v1.2h-2.2v4.5c0,1,0.3,1.6,1.1,1.6c0.4,0,0.7,0,0.9-0.1l0.1,1.2
		c-0.3,0.1-0.8,0.2-1.3,0.2c-0.7,0-1.3-0.2-1.6-0.6c-0.4-0.5-0.6-1.2-0.6-2.2V317h-1.3v-1.2h1.3v-1.6L-193.7,313.8z"/>
	<path id="XMLID_68_" class="st0" d="M-188.1,313.5c0,0.5-0.4,0.9-1,0.9c-0.6,0-0.9-0.4-0.9-0.9s0.4-0.9,0.9-0.9
		C-188.5,312.5-188.1,312.9-188.1,313.5z M-189.8,324.2v-8.3h1.5v8.3H-189.8z"/>
	<path id="XMLID_71_" class="st0" d="M-178.2,319.9c0,3.1-2.2,4.4-4.2,4.4c-2.2,0-4-1.7-4-4.3c0-2.8,1.8-4.4,4.1-4.4
		C-179.9,315.6-178.2,317.4-178.2,319.9z M-184.8,320c0,1.8,1,3.2,2.5,3.2c1.4,0,2.5-1.4,2.5-3.2c0-1.4-0.7-3.2-2.5-3.2
		S-184.8,318.4-184.8,320z"/>
	<path id="XMLID_74_" class="st0" d="M-176.3,318.1c0-0.9,0-1.6-0.1-2.3h1.3l0.1,1.4l0,0c0.4-0.8,1.4-1.6,2.8-1.6
		c1.2,0,2.9,0.7,2.9,3.6v5h-1.5v-4.8c0-1.3-0.5-2.5-1.9-2.5c-1,0-1.8,0.7-2,1.6c-0.1,0.2-0.1,0.4-0.1,0.7v5h-1.5
		C-176.3,324.2-176.3,318.1-176.3,318.1z"/>
	<path id="XMLID_76_" class="st0" d="M-160.9,322.2c0,0.7,0,1.4,0.1,2h-1.4l-0.1-1.1h-0.1c-0.5,0.7-1.4,1.2-2.6,1.2
		c-1.7,0-2.6-1.2-2.6-2.4c0-2,1.8-3.1,5-3.1v-0.2c0-0.7-0.2-1.9-1.9-1.9c-0.8,0-1.6,0.2-2.2,0.6l-0.3-1c0.7-0.4,1.7-0.7,2.8-0.7
		c2.6,0,3.2,1.7,3.2,3.4v3.2H-160.9z M-162.4,319.9c-1.7,0-3.5,0.3-3.5,1.9c0,1,0.7,1.4,1.4,1.4c1.1,0,1.8-0.7,2.1-1.4
		c0.1-0.2,0.1-0.3,0.1-0.5L-162.4,319.9L-162.4,319.9z"/>
	<path id="XMLID_79_" class="st0" d="M-158.4,311.9h1.5v12.2h-1.5V311.9z"/>
	<path id="XMLID_82_" class="st0" d="M-150.7,312.7c0.9-0.2,2-0.3,3.2-0.3c2.2,0,3.7,0.5,4.7,1.4c1.1,0.9,1.7,2.3,1.7,4.2
		c0,1.9-0.6,3.4-1.7,4.5c-1.1,1.1-2.9,1.7-5.2,1.7c-1.1,0-2-0.1-2.7-0.1V312.7z M-149.2,323c0.4,0.1,0.9,0.1,1.5,0.1
		c3.2,0,4.9-1.8,4.9-4.9c0-2.7-1.5-4.5-4.7-4.5c-0.8,0-1.4,0.1-1.8,0.2v9.1H-149.2z"/>
	<path id="XMLID_85_" class="st0" d="M-138.3,320.3c0,2.1,1.3,2.9,2.9,2.9c1.1,0,1.8-0.2,2.3-0.4l0.3,1.1c-0.5,0.2-1.5,0.5-2.8,0.5
		c-2.6,0-4.1-1.7-4.1-4.2s1.5-4.5,3.9-4.5c2.7,0,3.4,2.4,3.4,3.9c0,0.3,0,0.5-0.1,0.7H-138.3z M-133.9,319.2c0-0.9-0.4-2.4-2.1-2.4
		c-1.6,0-2.2,1.4-2.3,2.4H-133.9z"/>
	<path id="XMLID_88_" class="st0" d="M-129.9,315.8l1.6,4.7c0.3,0.8,0.5,1.5,0.7,2.2h0.1c0.2-0.7,0.4-1.4,0.7-2.2l1.6-4.7h1.6
		l-3.3,8.3h-1.4l-3.2-8.3H-129.9z"/>
	<path id="XMLID_90_" class="st0" d="M-121.5,320.3c0,2.1,1.3,2.9,2.9,2.9c1.1,0,1.8-0.2,2.3-0.4l0.3,1.1c-0.5,0.2-1.5,0.5-2.8,0.5
		c-2.6,0-4.1-1.7-4.1-4.2s1.5-4.5,3.9-4.5c2.7,0,3.4,2.4,3.4,3.9c0,0.3,0,0.5-0.1,0.7H-121.5z M-117.1,319.2c0-0.9-0.4-2.4-2.1-2.4
		c-1.6,0-2.2,1.4-2.3,2.4H-117.1z"/>
	<path id="XMLID_93_" class="st0" d="M-113.7,311.9h1.5v12.2h-1.5V311.9z"/>
	<path id="XMLID_95_" class="st0" d="M-102.1,319.9c0,3.1-2.2,4.4-4.2,4.4c-2.2,0-4-1.7-4-4.3c0-2.8,1.8-4.4,4.1-4.4
		C-103.7,315.6-102.1,317.4-102.1,319.9z M-108.7,320c0,1.8,1,3.2,2.5,3.2c1.4,0,2.5-1.4,2.5-3.2c0-1.4-0.7-3.2-2.5-3.2
		C-107.9,316.8-108.7,318.4-108.7,320z"/>
	<path id="XMLID_98_" class="st0" d="M-100.2,318.5c0-1.1,0-1.9-0.1-2.7h1.3l0.1,1.4l0,0c0.6-1,1.6-1.6,3-1.6c2,0,3.6,1.7,3.6,4.2
		c0,3-1.8,4.5-3.8,4.5c-1.1,0-2.1-0.5-2.6-1.3l0,0v4.5h-1.5V318.5z M-98.7,320.8c0,0.2,0,0.4,0.1,0.6c0.3,1.1,1.2,1.8,2.3,1.8
		c1.6,0,2.5-1.3,2.5-3.2c0-1.7-0.9-3.1-2.5-3.1c-1,0-2,0.7-2.3,1.9c-0.1,0.2-0.1,0.4-0.1,0.6V320.8z"/>
	<path id="XMLID_101_" class="st0" d="M-90.4,318.1c0-0.9,0-1.6-0.1-2.3h1.3l0.1,1.4h0.1c0.5-0.8,1.2-1.5,2.6-1.5
		c1.1,0,2,0.7,2.3,1.7l0,0c0.3-0.5,0.6-0.8,0.9-1.1c0.5-0.4,1-0.6,1.8-0.6c1.1,0,2.8,0.7,2.8,3.6v4.9h-1.5v-4.7
		c0-1.6-0.6-2.6-1.8-2.6c-0.9,0-1.5,0.6-1.8,1.4c-0.1,0.2-0.1,0.5-0.1,0.8v5.2h-1.5v-5c0-1.3-0.6-2.3-1.7-2.3
		c-0.9,0-1.6,0.8-1.9,1.5c-0.1,0.2-0.1,0.5-0.1,0.7v5h-1.5L-90.4,318.1L-90.4,318.1z"/>
	<path id="XMLID_103_" class="st0" d="M-75.2,320.3c0,2.1,1.3,2.9,2.9,2.9c1.1,0,1.8-0.2,2.3-0.4l0.3,1.1c-0.5,0.2-1.5,0.5-2.8,0.5
		c-2.6,0-4.1-1.7-4.1-4.2s1.5-4.5,3.9-4.5c2.7,0,3.4,2.4,3.4,3.9c0,0.3,0,0.5-0.1,0.7H-75.2z M-70.7,319.2c0-0.9-0.4-2.4-2.1-2.4
		c-1.6,0-2.2,1.4-2.3,2.4H-70.7z"/>
	<path id="XMLID_106_" class="st0" d="M-67.4,318.1c0-0.9,0-1.6-0.1-2.3h1.3l0.1,1.4l0,0c0.4-0.8,1.4-1.6,2.8-1.6
		c1.2,0,2.9,0.7,2.9,3.6v5h-1.5v-4.8c0-1.3-0.5-2.5-1.9-2.5c-1,0-1.8,0.7-2,1.6c-0.1,0.2-0.1,0.4-0.1,0.7v5h-1.5V318.1z"/>
	<path id="XMLID_108_" class="st0" d="M-56,313.8v2h2.2v1.2H-56v4.5c0,1,0.3,1.6,1.1,1.6c0.4,0,0.7,0,0.9-0.1l0.1,1.2
		c-0.3,0.1-0.8,0.2-1.3,0.2c-0.7,0-1.3-0.2-1.6-0.6c-0.4-0.5-0.6-1.2-0.6-2.2V317h-1.3v-1.2h1.3v-1.6L-56,313.8z"/>
	<path id="XMLID_110_" class="st0" d="M-48.4,312.7c0.8-0.1,1.9-0.2,2.9-0.2c1.6,0,2.7,0.3,3.4,0.9c0.6,0.5,0.9,1.3,0.9,2.2
		c0,1.5-1,2.5-2.2,2.9v0.1c0.9,0.3,1.4,1.1,1.7,2.3c0.4,1.6,0.7,2.7,0.9,3.2h-1.6c-0.2-0.3-0.4-1.3-0.8-2.8c-0.3-1.6-1-2.2-2.3-2.3
		h-1.4v5h-1.5L-48.4,312.7L-48.4,312.7z M-46.9,318h1.5c1.6,0,2.6-0.9,2.6-2.2c0-1.5-1.1-2.2-2.7-2.2c-0.7,0-1.2,0.1-1.5,0.1
		L-46.9,318L-46.9,318z"/>
	<path id="XMLID_113_" class="st0" d="M-38.3,320.3c0,2.1,1.3,2.9,2.9,2.9c1.1,0,1.8-0.2,2.3-0.4l0.3,1.1c-0.5,0.2-1.5,0.5-2.8,0.5
		c-2.6,0-4.1-1.7-4.1-4.2s1.5-4.5,3.9-4.5c2.7,0,3.4,2.4,3.4,3.9c0,0.3,0,0.5-0.1,0.7H-38.3z M-33.8,319.2c0-0.9-0.4-2.4-2.1-2.4
		c-1.6,0-2.2,1.4-2.3,2.4H-33.8z"/>
	<path id="XMLID_116_" class="st0" d="M-30.7,322.6c0.5,0.3,1.3,0.6,2,0.6c1.1,0,1.6-0.5,1.6-1.2c0-0.7-0.4-1.1-1.5-1.5
		c-1.5-0.6-2.2-1.4-2.2-2.4c0-1.3,1.1-2.4,2.9-2.4c0.8,0,1.6,0.2,2,0.5l-0.4,1.1c-0.3-0.2-0.9-0.5-1.7-0.5c-0.9,0-1.4,0.5-1.4,1.1
		c0,0.7,0.5,1,1.6,1.4c1.4,0.5,2.2,1.3,2.2,2.5c0,1.5-1.2,2.5-3.1,2.5c-0.9,0-1.8-0.2-2.3-0.6L-30.7,322.6z"/>
	<path id="XMLID_118_" class="st0" d="M-22.8,320.3c0,2.1,1.3,2.9,2.9,2.9c1.1,0,1.8-0.2,2.3-0.4l0.3,1.1c-0.5,0.2-1.5,0.5-2.8,0.5
		c-2.6,0-4.1-1.7-4.1-4.2s1.5-4.5,3.9-4.5c2.7,0,3.4,2.4,3.4,3.9c0,0.3,0,0.5-0.1,0.7H-22.8z M-18.4,319.2c0-0.9-0.4-2.4-2.1-2.4
		c-1.6,0-2.2,1.4-2.3,2.4H-18.4z"/>
	<path id="XMLID_121_" class="st0" d="M-9.2,322.2c0,0.7,0,1.4,0.1,2h-1.4l-0.1-1.1h-0.1c-0.5,0.7-1.4,1.2-2.6,1.2
		c-1.7,0-2.6-1.2-2.6-2.4c0-2,1.8-3.1,5-3.1v-0.2c0-0.7-0.2-1.9-1.9-1.9c-0.8,0-1.6,0.2-2.2,0.6l-0.3-1c0.7-0.4,1.7-0.7,2.8-0.7
		c2.6,0,3.2,1.7,3.2,3.4v3.2H-9.2z M-10.6,319.9c-1.7,0-3.5,0.3-3.5,1.9c0,1,0.7,1.4,1.4,1.4c1.1,0,1.8-0.7,2.1-1.4
		c0.1-0.2,0.1-0.3,0.1-0.5v-1.4H-10.6z"/>
	<path id="XMLID_124_" class="st0" d="M-6.7,318.4c0-1,0-1.8-0.1-2.6h1.3l0.1,1.7h0.1c0.4-1.1,1.3-1.8,2.3-1.8c0.2,0,0.3,0,0.4,0
		v1.4c-0.2,0-0.3,0-0.5,0c-1.1,0-1.8,0.8-2,1.9c0,0.2-0.1,0.5-0.1,0.7v4.4h-1.5L-6.7,318.4L-6.7,318.4z"/>
	<path id="XMLID_126_" class="st0" d="M4.7,323.9c-0.4,0.2-1.3,0.5-2.4,0.5c-2.5,0-4.2-1.7-4.2-4.3s1.8-4.4,4.5-4.4
		c0.9,0,1.7,0.2,2.1,0.4l-0.3,1.2c-0.4-0.2-0.9-0.4-1.8-0.4c-1.9,0-2.9,1.4-2.9,3.2c0,1.9,1.2,3.1,2.9,3.1c0.9,0,1.4-0.2,1.9-0.4
		L4.7,323.9z"/>
	<path id="XMLID_128_" class="st0" d="M6.5,311.9H8v5.2l0,0c0.2-0.4,0.6-0.8,1.1-1.1c0.4-0.3,1-0.4,1.6-0.4c1.1,0,2.9,0.7,2.9,3.6v5
		h-1.5v-4.8c0-1.3-0.5-2.5-1.9-2.5c-1,0-1.7,0.7-2,1.5c-0.1,0.2-0.1,0.4-0.1,0.7v5H6.6v-12.2H6.5z"/>
</g>
</svg>
